<svg width="137" height="148" viewBox="0 0 137 148" fill="none" xmlns="http://www.w3.org/2000/svg">
<path d="M123.46 79.2854V28.0273L66.783 65.6384V115.595L123.46 79.2854Z" fill="#E8E8E8"/>
<path d="M67.5595 116.857L28.6831 92.3157V40.595L67.5595 65.1361V116.857Z" fill="#E8E8E8"/>
<path d="M67.5599 117.094L27.8584 92.0484V90.2295L67.5599 115.275V117.094Z" fill="#B2B2B2"/>
<path d="M67.5599 115.275L27.8584 90.269L28.6834 89.7058L67.5599 114.247V115.275Z" fill="#DBDBDB"/>
<path d="M28.6831 40.5949L85.9408 2.59912L124.792 27.1306L67.5328 65.1253L28.6831 40.5949Z" fill="#F99770"/>
<path d="M67.5598 117.084L123.77 79.763V76.916L67.5598 114.238V117.084Z" fill="#B2B2B2"/>
<path d="M67.5598 115.187L123.77 77.865V76.916L67.5598 114.238V115.187Z" fill="#DBDBDB"/>
<path d="M85.4708 106.171V67.3159L74.7947 74.8683V111.672L85.4708 106.171Z" fill="#515151"/>
<path d="M84.7974 68.6177V105.761L75.4679 110.568V75.2157L84.7974 68.6177ZM86.144 66.0144L84.0195 67.5191L74.6899 74.1182L74.1213 74.52V112.779L76.0856 111.767L85.4151 106.96L86.144 106.582V66.0144Z" fill="#B2B2B2"/>
<path d="M118.468 74.5369V43.8872L91.8901 62.2481V92.4276L118.468 74.5369Z" fill="white"/>
<path d="M117.795 45.172V74.1791L92.5638 91.1625V62.6011L117.795 45.172ZM119.142 42.604L117.03 44.0627L91.7986 61.4929L91.2173 61.8947V93.6932L93.3162 92.2804L118.548 75.2959L119.143 74.8962L119.142 42.604Z" fill="#D3D3D3"/>
<path d="M92.5642 92.8232L94.91 93.9453L120.134 77.025V75.3643L92.5642 89.9923V92.8232Z" fill="#AAAAAA"/>
<path d="M92.5642 91.1627L94.91 92.2859L120.134 75.3645L115.481 73.1501L92.5642 88.3318V91.1627Z" fill="#E8E8E8"/>
<path d="M115.559 73.1501L117.795 74.1792V45.1721L115.559 47.1363V73.1501Z" fill="#B2B2B2"/>
<g opacity="0.6">
<path opacity="0.5" d="M103.225 81.1363L109.697 76.9086L99.3793 58.009L90.9175 60.2223L103.225 81.1363Z" fill="#BDCAD3"/>
</g>
<g style="mix-blend-mode:darken" opacity="0.8">
<path d="M67.7 88.0657L124.818 49.9951L122.742 31.7966L67.7 66.0028V88.0657Z" fill="#BFBFBF"/>
</g>
<path d="M90.4788 61.2502H91.2685V93.5895L90.4788 93.2539V61.2502Z" fill="#B2B2B2"/>
<path d="M131.757 50.1403C131.743 50.9878 132.268 53.699 134.135 52.9637C136.207 52.1483 136.845 50.1232 136.889 47.3147C136.932 44.5062 123.872 39.7218 121.867 39.6908C119.861 39.6587 131.801 47.3318 131.757 50.1403Z" fill="#7A2E11"/>
<path d="M126.506 53.1048C126.493 53.9522 127.135 56.6442 129.004 55.9111C131.074 55.0957 131.713 53.0695 131.756 50.261C131.8 47.4536 118.741 42.6681 116.735 42.6371C114.728 42.605 126.55 50.2952 126.506 53.1048Z" fill="#C4C4C4"/>
<path d="M121.48 56.7598C121.466 57.6072 121.991 60.3185 123.858 59.5832C125.929 58.7689 126.567 56.7437 126.611 53.9353C126.655 51.1246 113.597 46.3412 111.59 46.3092C109.584 46.2771 121.523 53.9502 121.48 56.7598Z" fill="#7A2E11"/>
<path d="M116.325 60.1657C116.311 61.0132 116.897 63.6549 118.764 62.9218C120.835 62.1064 121.473 60.0802 121.518 57.2717C121.561 54.4633 108.502 49.6799 106.495 49.6478C104.49 49.6157 116.367 57.3562 116.325 60.1657Z" fill="#C4C4C4"/>
<path d="M111.296 63.6881C111.283 64.5356 111.808 67.2468 113.675 66.5116C115.748 65.6973 116.383 63.671 116.427 60.8626C116.471 58.053 103.411 53.2696 101.406 53.2386C99.3991 53.2066 111.339 60.8797 111.296 63.6881Z" fill="#7A2E11"/>
<path d="M106.012 66.8137C105.999 67.6633 106.675 70.3211 108.543 69.5869C110.614 68.7725 111.252 66.7463 111.297 63.9379C111.34 61.1283 98.2804 56.3449 96.2745 56.3128C94.2686 56.2808 106.056 64.0062 106.012 66.8137Z" fill="#C4C4C4"/>
<path d="M100.924 70.1213C100.911 70.9688 101.434 73.679 103.301 72.9448C105.374 72.1305 106.01 70.1042 106.055 67.2958C106.098 64.4862 93.0394 59.7028 91.0335 59.6708C89.0254 59.6387 100.968 67.3118 100.924 70.1213Z" fill="#7A2E11"/>
<path d="M95.9054 73.4331C95.8915 74.2806 96.4151 76.9918 98.2832 76.2566C100.356 75.4422 100.992 73.416 101.037 70.6075C101.08 67.798 88.0217 63.0135 86.0147 62.9825C84.0088 62.9505 95.9492 70.6236 95.9054 73.4331Z" fill="#C4C4C4"/>
<path d="M90.8086 76.9255C90.7947 77.7729 91.3194 80.4841 93.1874 79.7489C95.2585 78.9346 95.8955 76.9084 95.9393 74.0999C95.9842 71.2903 82.9238 66.5069 80.919 66.4759C78.9109 66.4439 90.8524 74.117 90.8086 76.9255Z" fill="#7A2E11"/>
<path d="M85.7272 80.4641C85.7143 81.3116 86.238 84.0217 88.106 83.2865C90.1771 82.4722 90.8141 80.447 90.859 77.6375C90.9017 74.829 77.8435 70.0456 75.8365 70.0135C73.8306 69.9815 85.771 77.6546 85.7272 80.4641Z" fill="#C4C4C4"/>
<path d="M80.662 83.9096C80.6481 84.7581 81.1717 87.4683 83.0387 86.7341C85.1109 85.9187 85.75 83.8936 85.7927 81.084C85.8376 78.2766 72.7773 73.4921 70.7713 73.4601C68.7654 73.428 80.7058 81.1011 80.662 83.9096Z" fill="#7A2E11"/>
<path d="M67.5654 76.2822L80.7284 84.0942L121.276 29.9443L67.6178 65.6435L67.5654 76.2822Z" fill="#7A2E11"/>
<path d="M80.8951 84.0026L134.298 48.4103L121.201 29.9863L67.8145 65.5519L80.8951 84.0026Z" fill="#F9F9F9"/>
<path d="M131.778 50.0879L136.799 46.8306L123.687 28.3799L118.799 31.5239L131.778 50.0879Z" fill="#ED5700"/>
<path d="M121.517 56.965L126.555 53.5944L113.424 35.1191L108.598 38.3166L121.517 56.965Z" fill="#ED5700"/>
<path d="M111.306 63.7425L116.331 60.4157L103.226 41.8667L98.3989 45.1198L111.306 63.7425Z" fill="#ED5700"/>
<path d="M101.036 70.5735L106.04 67.2467L93.0351 48.6924L88.1865 51.9241L101.036 70.5735Z" fill="#ED5700"/>
<path d="M90.8331 77.3853L95.9329 74.0082L82.8458 55.4849L77.9983 58.7155L90.8331 77.3853Z" fill="#ED5700"/>
<path d="M80.6683 84.1391L85.7499 80.7781L72.6457 62.2878L67.5876 65.6873L80.6683 84.1391Z" fill="#ED5700"/>
<path d="M27.4534 41.0685V38.7334L85.8813 2.33643L126.021 25.2702V27.6053L67.5941 66.3384L27.4534 41.0685Z" fill="#B2B2B2"/>
<path d="M85.8813 2.33643L89.2006 4.01211L67.5941 64.0034L67.6432 66.3074L67.5941 66.3384L27.4534 41.0685V38.7334L85.8813 2.33643Z" fill="#B2B2B2"/>
<path d="M27.2971 38.6369L85.8811 0L126.021 25.2699L67.5938 64.0031L27.2971 38.6369Z" fill="#DBDBDB"/>
<path d="M31.5737 38.7342L86.0828 2.4729L121.901 25.2688L67.3905 61.5301L31.5737 38.7342Z" fill="#E8E8E8"/>
<path d="M86.0833 2.4729L121.901 25.2688L118.84 27.1999L86.0833 6.15556V2.4729Z" fill="#B2B2B2"/>
<path d="M86.0828 6.15556L34.4731 40.5349L31.5737 38.7342L86.0828 2.4729V6.15556Z" fill="#B2B2B2"/>
<g style="mix-blend-mode:multiply" opacity="0.2">
<path d="M65.7361 60.5789L117.336 26.3182L121.902 25.2688L67.3915 61.5301L65.7361 60.5789Z" fill="#989FA7"/>
</g>
<path d="M120.134 77.025V75.3643L94.9097 92.2857V93.9453L120.134 77.025Z" fill="#DDDDDD"/>
<path opacity="0.3" d="M28.8728 50.0226L53.5614 65.6007L53.1821 66.2034L28.4934 50.6231L28.8728 50.0226Z" fill="#C97DC3"/>
<path d="M28.8087 49.8861L53.4984 65.4631L53.2451 65.8649L28.5554 50.2868L28.8087 49.8861Z" fill="#B5B0AE"/>
<path d="M64.1208 80.7121L50.5998 72.7333L50.4727 64.1369L53.793 61.9226L64.1208 68.3956V80.7121Z" fill="#E8E8E8"/>
<path d="M60.5544 77.835L49.7607 64.374L53.0811 62.1597L63.4089 68.6326L60.5544 77.835Z" fill="#CACCD8"/>
<path d="M60.0874 80.554L49.7607 74.0811V64.3743L60.0874 70.8462V80.554Z" fill="#A0A4AF"/>
<path d="M63.4091 78.3394L60.0876 80.5537V70.8458L63.4091 68.6326V78.3394Z" fill="#ABB1BD"/>
<path d="M54.8873 75.9223C56.8622 77.1576 58.4674 76.5923 58.4749 74.6612C58.3492 73.4998 57.9633 72.3816 57.3459 71.3899C56.7285 70.3982 55.8954 69.5585 54.9087 68.9331C52.9316 67.6977 51.3265 68.2609 51.3201 70.192C51.4456 71.3538 51.8314 72.4723 52.4488 73.4644C53.0662 74.4564 53.9004 75.2966 54.8873 75.9223Z" fill="#67707F"/>
<path d="M54.8939 73.602C55.5586 74.0178 56.0983 73.8275 56.1015 73.1788C56.0592 72.7881 55.9294 72.4119 55.7216 72.0783C55.5138 71.7447 55.2334 71.4623 54.9014 71.252C54.2366 70.8374 53.697 71.0265 53.6948 71.6752C53.737 72.0659 53.8666 72.442 54.0742 72.7756C54.2818 73.1092 54.562 73.3917 54.8939 73.602Z" fill="#A0A4AF"/>
<path d="M52.4585 67.5791L55.1313 72.3486L54.7177 72.5805L52.0449 67.811L52.4585 67.5791Z" fill="#A0A4AF"/>
<path d="M58.713 71.2017L58.837 71.6601L54.9854 72.6935L54.8625 72.234L58.7141 71.2017H58.713Z" fill="#A0A4AF"/>
<path d="M55.161 72.4604L55.2166 76.2307L54.7421 76.2371L54.6865 72.4669L55.161 72.4604Z" fill="#A0A4AF"/>
<path d="M122.174 10.451C122.206 9.993 122.102 9.53567 121.875 9.13665C121.648 8.73763 121.308 8.4148 120.898 8.20888C119.866 7.53783 118.669 7.1657 117.438 7.13379C109.144 7.13379 87.6564 18.9544 75.4894 29.8934C70.2711 34.5849 66.769 39.0263 66.7572 42.1404C66.7508 43.5308 66.7572 61.258 66.7572 61.258L68.4693 62.0809L122.174 26.3539C122.174 26.3539 122.169 11.4074 122.174 10.451ZM83.3164 49.618L98.3506 38.275L70.4442 57.041C70.4335 56.8273 70.4228 56.5569 70.4121 56.2374C70.4869 53.3167 71.1602 44.0031 71.1656 42.3991C71.173 40.5727 72.3197 37.7076 77.086 33.249C81.1262 29.5548 85.445 26.1774 90.0042 23.1468C91.5275 22.1152 93.0357 21.1196 94.529 20.1599C104.538 13.9904 114.188 10.0406 118.598 9.99357C118.589 11.8199 118.531 20.4452 118.458 21.2168L118.351 22.3411L118.864 22.8006L119.665 22.1957L119.593 22.962L120.25 23.5497L119.937 23.7603L120.244 24.0349L119.11 25.9404L83.3164 49.618Z" fill="#7A2E11"/>
<path d="M119.192 23.0931L118.864 22.8003L98.3506 38.2747L119.937 23.76L119.192 23.0931Z" fill="url(#paint0_linear_272_930)"/>
<path d="M121.207 26.0223C121.207 26.0223 121.203 11.826 121.207 10.6943C121.23 10.5045 121.212 10.312 121.155 10.1296C121.097 9.9473 121.001 9.77944 120.873 9.63739C120.311 9.23118 119.618 9.04733 118.928 9.12122C113.645 9.12122 101.661 14.2626 89.7855 22.3044C77.3963 30.6935 69.3812 38.8219 69.3652 43.0143C69.3598 44.6098 69.3652 60.4092 69.3652 60.4092L121.207 26.0223Z" fill="#ED5700"/>
<path d="M79.5559 46.7204L78.235 44.1075L77.9668 44.2763L78.2318 47.5486L77.052 48.286L76.3499 39.619L78.3632 38.3601C78.5055 38.252 78.668 38.1736 78.8411 38.1296C79.0142 38.0855 79.1944 38.0767 79.371 38.1037C79.5218 38.1463 79.6611 38.2222 79.7787 38.3258C79.8963 38.4294 79.9893 38.5579 80.0507 38.7021C80.2374 39.1087 80.3445 39.5473 80.3659 39.9942C80.4192 40.5955 80.3638 41.2014 80.2024 41.7831C80.0586 42.3173 79.7922 42.8105 79.4244 43.2237L80.8597 45.9061L79.5559 46.7204ZM77.8503 42.8411L78.5813 42.3848C78.8089 42.2462 78.9832 42.035 79.0761 41.7853C79.1766 41.49 79.2105 41.1761 79.1754 40.8662C79.1796 40.6118 79.0966 40.3637 78.9403 40.163C78.8121 40.0369 78.6326 40.0476 78.4028 40.1908L77.6718 40.6482L77.8503 42.8411Z" fill="white"/>
<path d="M84.8127 40.2401L82.1432 41.9094C82.1423 42.2577 82.2507 42.5974 82.4531 42.8808C82.5251 42.9492 82.6198 42.9888 82.7191 42.9919C82.8185 42.9951 82.9155 42.9616 82.9917 42.8979C83.1777 42.7753 83.3225 42.5995 83.4074 42.3935C83.5115 42.1588 83.572 41.9071 83.5859 41.6508L84.8341 40.8706C84.8237 41.3784 84.7479 41.8827 84.6086 42.3711C84.4811 42.8301 84.2871 43.2679 84.0326 43.6706C83.8177 44.021 83.5274 44.3192 83.183 44.5437C83.0364 44.6528 82.8671 44.7277 82.6877 44.7628C82.5083 44.798 82.3234 44.7925 82.1464 44.7467C81.9679 44.6763 81.806 44.5697 81.6709 44.4335C81.5357 44.2974 81.4301 44.1348 81.3609 43.9559C81.1247 43.4162 80.9893 42.8377 80.9612 42.2492C80.9005 41.5738 80.9318 40.8932 81.0542 40.2262C81.1556 39.6493 81.3543 39.0939 81.642 38.5837C81.8751 38.1585 82.209 37.797 82.6145 37.531C82.7615 37.4209 82.9311 37.3446 83.111 37.3079C83.291 37.2711 83.4769 37.2747 83.6554 37.3184C83.8283 37.3833 83.9859 37.4835 84.118 37.6127C84.2501 37.7418 84.3539 37.8971 84.4227 38.0686C84.6463 38.5691 84.7746 39.1069 84.801 39.6545C84.8153 39.8494 84.8199 40.0449 84.8127 40.2401ZM83.2974 39.1971C83.222 39.1307 83.1256 39.0932 83.0252 39.0913C82.9248 39.0893 82.827 39.123 82.7491 39.1864C82.5095 39.3514 82.3301 39.59 82.2383 39.8661C82.1068 40.2362 82.0526 40.6294 82.0791 41.0213L83.5827 40.0809C83.5983 39.7614 83.4968 39.4472 83.2974 39.1971Z" fill="white"/>
<path d="M87.766 34.9917C88.1526 35.3526 88.3968 35.8403 88.4542 36.3661L87.3503 37.0554C87.3269 36.8546 87.2307 36.6694 87.0799 36.5349C87.0127 36.4917 86.9335 36.471 86.8538 36.4758C86.774 36.4806 86.6979 36.5107 86.6364 36.5616C86.5055 36.6418 86.4037 36.7616 86.3457 36.9036C86.283 37.0624 86.2595 37.234 86.2773 37.4037C86.2944 37.6175 86.3703 37.7361 86.506 37.7639C86.7148 37.7864 86.926 37.7683 87.128 37.7105C87.3755 37.6543 87.6287 37.6274 87.8825 37.6303C87.9899 37.6398 88.0939 37.6728 88.1871 37.7269C88.2804 37.781 88.3606 37.8549 88.4221 37.9434C88.6173 38.2493 88.7214 38.6044 88.7224 38.9672C88.7546 39.3546 88.7225 39.7445 88.6273 40.1214C88.5359 40.4901 88.3804 40.8399 88.1678 41.1548C87.9648 41.4597 87.6997 41.7183 87.3898 41.9136C87.2132 42.0649 86.9962 42.1614 86.7655 42.191C86.5348 42.2206 86.3005 42.1821 86.0913 42.0803C85.883 41.909 85.712 41.6967 85.5891 41.4566C85.4661 41.2165 85.3937 40.9538 85.3764 40.6846L86.5145 39.9739C86.5165 40.0783 86.5412 40.1809 86.587 40.2747C86.6328 40.3685 86.6985 40.4511 86.7796 40.5168C86.8591 40.5542 86.9476 40.5681 87.0348 40.5567C87.1219 40.5454 87.2039 40.5093 87.2712 40.4527C87.404 40.3698 87.5058 40.2455 87.5608 40.0989C87.6219 39.9397 87.6453 39.7686 87.6292 39.5988C87.6099 39.3623 87.533 39.2323 87.3983 39.2087C87.182 39.192 86.9644 39.2126 86.755 39.2697C86.5169 39.3349 86.2709 39.3673 86.024 39.3658C85.9203 39.358 85.8197 39.3274 85.7292 39.2763C85.6387 39.2251 85.5605 39.1546 85.5004 39.0698C85.3103 38.772 85.209 38.4261 85.2086 38.0727C85.1554 37.4806 85.249 36.8845 85.4811 36.3372C85.6939 35.8145 86.066 35.3722 86.5445 35.073C86.7112 34.9277 86.9209 34.8411 87.1415 34.8264C87.3621 34.8118 87.5815 34.8698 87.766 34.9917Z" fill="white"/>
<path d="M91.5677 37.3161L91.7131 39.1189L91.183 39.4502C90.732 39.7324 90.3651 39.7537 90.0822 39.5143C89.7074 39.0165 89.5184 38.4034 89.5479 37.781L89.3438 35.2674L88.8265 35.5912L88.6833 33.8258L89.2006 33.503L89.0649 31.8231L90.2436 31.0857L90.3793 32.7657L91.152 32.2826L91.2952 34.0481L90.5225 34.53L90.7299 37.081C90.7232 37.2597 90.7717 37.4362 90.8688 37.5865C90.9386 37.6541 91.0473 37.642 91.1947 37.5501L91.5677 37.3161Z" fill="white"/>
<path d="M94.0631 30.7458C94.3275 30.8902 94.5244 31.1328 94.6114 31.4212L94.5109 30.1815L95.6822 29.4495L96.2379 36.2901L95.0656 37.0232L94.9651 35.7846C94.9069 36.2239 94.7751 36.6502 94.575 37.0456C94.4112 37.3836 94.159 37.6709 93.8451 37.8771C93.7198 37.9713 93.5719 38.031 93.4162 38.0501C93.2605 38.0692 93.1026 38.0471 92.9581 37.9861C92.6308 37.7983 92.3845 37.496 92.2667 37.1375C92.0541 36.5847 91.9297 36.002 91.898 35.4105C91.8381 34.7417 91.8604 34.0681 91.9642 33.4046C92.0451 32.8537 92.212 32.3189 92.459 31.8198C92.641 31.4338 92.9234 31.1038 93.2766 30.8644C93.3865 30.7788 93.5166 30.723 93.6543 30.7022C93.7921 30.6814 93.9329 30.6964 94.0631 30.7458ZM93.2296 33.2892C93.0941 33.7324 93.0494 34.1984 93.0981 34.6593C93.0948 35.0452 93.2104 35.4229 93.4294 35.7408C93.4676 35.7874 93.5147 35.826 93.568 35.8544C93.6212 35.8827 93.6796 35.9001 93.7396 35.9057C93.7997 35.9112 93.8602 35.9048 93.9178 35.8868C93.9754 35.8688 94.0287 35.8395 94.0749 35.8006C94.3573 35.5972 94.5598 35.3016 94.6477 34.9649C94.7861 34.5252 94.8338 34.062 94.7877 33.6034C94.7911 33.2199 94.6733 32.8452 94.4511 32.5326C94.413 32.4857 94.3662 32.4468 94.3131 32.418C94.26 32.3893 94.2018 32.3712 94.1417 32.365C94.0817 32.3587 94.021 32.3644 93.9631 32.3816C93.9053 32.3988 93.8514 32.4272 93.8045 32.4653C93.5223 32.6637 93.3188 32.956 93.2296 33.2892Z" fill="white"/>
<path d="M100.324 26.5459L100.88 33.3876L99.6933 34.1292L99.5918 32.8917C99.5237 33.333 99.3836 33.7601 99.1771 34.1559C99.0104 34.4932 98.7575 34.7804 98.444 34.9884C98.3638 35.0567 98.2704 35.1077 98.1697 35.1384C98.0689 35.169 97.9629 35.1786 97.8583 35.1666C97.7537 35.1546 97.6527 35.1212 97.5615 35.0685C97.4703 35.0158 97.3909 34.9449 97.3283 34.8602C96.9586 34.2908 96.7626 33.6262 96.7641 32.9473L96.4424 28.975L97.6147 28.2408L97.915 31.9566C97.9114 32.2982 98.0133 32.6326 98.2068 32.9141C98.2418 32.9552 98.2846 32.989 98.3328 33.0134C98.3809 33.0379 98.4334 33.0525 98.4873 33.0566C98.5411 33.0607 98.5952 33.0541 98.6465 33.0371C98.6978 33.0202 98.7452 32.9933 98.786 32.958C99.0484 32.7766 99.2375 32.5075 99.3193 32.1992C99.441 31.7833 99.4795 31.3475 99.4325 30.9168L99.1387 27.2886L100.324 26.5459Z" fill="white"/>
<path d="M102.91 25.2404C103.076 24.9029 103.326 24.6137 103.635 24.4004L103.817 26.6425L103.479 26.8541C103.169 27.0464 102.925 27.3291 102.781 27.6641C102.616 28.0986 102.56 28.5669 102.619 29.0278L102.871 32.1419L101.693 32.8793L101.138 26.0387L102.318 25.3013L102.421 26.588C102.521 26.1183 102.685 25.6647 102.91 25.2404Z" fill="white"/>
<path d="M106.379 23.0441C106.644 23.1884 106.841 23.4311 106.928 23.7195L106.827 22.4798L108 21.7478L108.553 28.5873L107.382 29.3215L107.281 28.0829C107.223 28.5225 107.091 28.9492 106.891 29.345C106.727 29.6825 106.475 29.9694 106.161 30.1754C106.036 30.2695 105.888 30.3291 105.732 30.3483C105.577 30.3674 105.419 30.3454 105.274 30.2844C104.947 30.0966 104.701 29.7944 104.583 29.4359C104.37 28.8831 104.246 28.3003 104.214 27.7089C104.155 27.04 104.177 26.3664 104.281 25.703C104.361 25.152 104.528 24.6172 104.775 24.1181C104.957 23.7321 105.24 23.4021 105.593 23.1627C105.703 23.0772 105.833 23.0213 105.971 23.0005C106.108 22.9798 106.249 22.9948 106.379 23.0441ZM105.546 25.5876C105.41 26.0311 105.366 26.4974 105.414 26.9587C105.412 27.3442 105.527 27.7213 105.746 28.0391C105.784 28.0858 105.831 28.1244 105.884 28.1527C105.938 28.181 105.996 28.1984 106.056 28.204C106.116 28.2096 106.177 28.2032 106.234 28.1851C106.292 28.1671 106.345 28.1378 106.391 28.0989C106.674 27.896 106.877 27.6003 106.965 27.2632C107.103 26.8235 107.15 26.3603 107.104 25.9017C107.107 25.5183 106.99 25.1435 106.767 24.8309C106.729 24.784 106.682 24.7451 106.629 24.7163C106.576 24.6876 106.518 24.6696 106.458 24.6634C106.398 24.6573 106.337 24.6631 106.279 24.6804C106.221 24.6978 106.168 24.7264 106.121 24.7647C105.839 24.963 105.635 25.2543 105.546 25.5876Z" fill="white"/>
<path d="M112.364 19.7654C112.734 20.3351 112.93 21.0002 112.928 21.6794L113.25 25.6517L112.071 26.3891L111.768 22.6626C111.772 22.3249 111.67 21.9944 111.478 21.7168C111.443 21.676 111.401 21.6424 111.354 21.6179C111.306 21.5934 111.254 21.5785 111.201 21.5741C111.148 21.5698 111.094 21.576 111.044 21.5924C110.993 21.6088 110.946 21.6351 110.905 21.6698C110.643 21.8521 110.453 22.1213 110.371 22.4297C110.246 22.8457 110.206 23.2825 110.253 23.7142L110.547 27.3424L109.367 28.0798L108.812 21.2392L109.992 20.5018L110.094 21.7521C110.161 21.3065 110.301 20.8749 110.508 20.475C110.677 20.1359 110.932 19.8475 111.248 19.6393C111.328 19.5711 111.421 19.5201 111.522 19.4893C111.623 19.4586 111.729 19.4489 111.833 19.4607C111.938 19.4725 112.039 19.5056 112.13 19.5581C112.221 19.6105 112.301 19.6811 112.364 19.7654Z" fill="white"/>
<path d="M116.063 21.9987L116.208 23.8016L115.678 24.1328C115.227 24.415 114.86 24.4363 114.577 24.197C114.203 23.6992 114.014 23.0867 114.043 22.4646L113.84 19.9511L113.322 20.2739L113.178 18.5095L113.696 18.1857L113.56 16.5057L114.739 15.7683L114.876 17.4483L115.648 16.9652L115.79 18.7307L115.018 19.2137L115.225 21.7636C115.218 21.9424 115.267 22.1189 115.364 22.2691C115.434 22.3364 115.543 22.3246 115.691 22.2327L116.063 21.9987Z" fill="white"/>
<path d="M24.8906 147.18L24.8992 116.018L0 101.623V132.751L24.8906 147.18Z" fill="#7A2E11"/>
<path d="M24.8909 147.18L24.8994 116.018L49.7997 101.623V132.751L24.8909 147.18Z" fill="#ED5700"/>
<path d="M49.7994 101.623L24.8992 116.018L0 101.623L24.8906 87.2319L49.7994 101.623Z" fill="#E0E0E0"/>
<path opacity="0.68" d="M9.25708 116.038L14.8099 119.261V110.167L9.25708 106.942V116.038Z" fill="#D3D3D3"/>
<path opacity="0.68" d="M9.25708 106.941L34.1221 92.5654L39.6867 95.7811L14.8099 110.178L9.25708 106.941Z" fill="#F7F8FA"/>
<path d="M27.3491 123.179V131.503L47.9704 119.445V111.111L27.3491 123.179Z" fill="#F7F8FA"/>
<path d="M25.9955 111.032L26.0019 101.002L9.92358 91.7075V101.745L25.9955 111.032Z" fill="#7A2E11"/>
<path d="M25.9961 111.032L26.0025 101.002L44.7749 90.1504V100.181L25.9961 111.032Z" fill="#ED5700"/>
<path d="M44.7743 90.1507L26.0019 101.002L9.92358 91.7078L28.6853 80.8596L44.7743 90.1507Z" fill="#D3D3D3"/>
<path d="M31.3037 100.134V106.424L40.5852 101.061V94.7585L31.3037 100.134Z" fill="#F7F8FA"/>
<path opacity="0.68" d="M13.9866 99.3228L19.5394 102.547V97.2634L13.9866 94.0371V99.3228Z" fill="#D3D3D3"/>
<path opacity="0.68" d="M13.9866 94.0371L32.7334 83.1975L38.3022 86.4132L19.5394 97.2741L13.9866 94.0371Z" fill="#F7F8FA"/>
<path d="M32.2206 121.877L32.2729 122.746L30.982 123.463L31.0397 124.451L32.0368 123.897L32.0859 124.726L31.0888 125.281L31.1968 127.105L30.4359 127.529L30.1687 123.017L32.2206 121.877Z" fill="#7F7F7F"/>
<path d="M34.9286 120.606C35.0611 120.642 35.1845 120.706 35.2912 120.793C35.3978 120.88 35.4854 120.988 35.5485 121.11C35.7248 121.441 35.8207 121.809 35.8285 122.184C35.8547 122.626 35.8071 123.068 35.6874 123.494C35.5778 123.903 35.4004 124.29 35.1627 124.64C34.9616 124.945 34.6928 125.199 34.3772 125.384C34.133 125.538 33.8383 125.592 33.5554 125.533C33.4226 125.496 33.2989 125.432 33.1919 125.344C33.0849 125.257 32.9969 125.149 32.9334 125.027C32.7557 124.695 32.659 124.326 32.6513 123.95C32.625 123.51 32.673 123.068 32.7934 122.643C32.9028 122.236 33.0802 121.85 33.3181 121.502C33.5185 121.196 33.7874 120.942 34.1036 120.758C34.3482 120.602 34.6442 120.547 34.9286 120.606ZM33.5906 122.45C33.4535 122.789 33.3971 123.155 33.4261 123.52C33.4138 123.819 33.512 124.112 33.7018 124.343C33.7857 124.417 33.8931 124.46 34.0054 124.464C34.1176 124.468 34.2276 124.432 34.3163 124.363C34.5785 124.207 34.7801 123.967 34.888 123.682C35.0261 123.344 35.0832 122.978 35.0547 122.614C35.0663 122.315 34.9682 122.023 34.779 121.792C34.6948 121.717 34.5871 121.675 34.4747 121.671C34.3623 121.667 34.2522 121.703 34.1634 121.773C33.901 121.927 33.699 122.166 33.5906 122.45Z" fill="#7F7F7F"/>
<path d="M38.441 118.653C38.5735 118.69 38.697 118.754 38.8037 118.841C38.9104 118.927 38.9979 119.035 39.0608 119.158C39.2366 119.489 39.3322 119.857 39.3397 120.232C39.3663 120.673 39.319 121.116 39.1998 121.542C39.0899 121.951 38.9122 122.338 38.674 122.688C38.4729 122.992 38.2041 123.247 37.8885 123.43C37.6447 123.585 37.3504 123.638 37.0677 123.58C36.9348 123.543 36.8109 123.479 36.7037 123.392C36.5965 123.305 36.5083 123.197 36.4447 123.074C36.2674 122.743 36.1711 122.374 36.1636 121.998C36.1371 121.558 36.1848 121.116 36.3047 120.691C36.4141 120.284 36.5915 119.897 36.8294 119.549C37.0305 119.244 37.2998 118.989 37.616 118.806C37.8603 118.65 38.1569 118.595 38.441 118.653ZM37.1019 120.498C36.9646 120.837 36.9082 121.203 36.9374 121.568C36.9248 121.866 37.023 122.159 37.2131 122.39C37.297 122.465 37.4044 122.508 37.5167 122.512C37.6289 122.515 37.7389 122.48 37.8276 122.411C38.0899 122.255 38.2915 122.015 38.3993 121.73C38.5376 121.392 38.5947 121.026 38.566 120.661C38.5777 120.363 38.4796 120.071 38.2903 119.841C38.2062 119.766 38.0987 119.723 37.9864 119.719C37.874 119.715 37.7638 119.751 37.6747 119.819C37.4122 119.974 37.2102 120.213 37.1019 120.498Z" fill="#7F7F7F"/>
<path d="M42.469 119.713C42.3638 120.114 42.1864 120.493 41.9453 120.831C41.7209 121.15 41.4281 121.414 41.0883 121.605L39.8999 122.265L39.6338 117.755L40.8222 117.094C41.0859 116.922 41.402 116.849 41.7145 116.888C41.846 116.916 41.9694 116.973 42.0757 117.056C42.1821 117.138 42.2686 117.243 42.329 117.363C42.4975 117.693 42.5889 118.056 42.5962 118.426C42.6231 118.86 42.5798 119.295 42.4679 119.714L42.469 119.713ZM41.6354 119.943C41.7913 119.603 41.8575 119.228 41.8278 118.855C41.8372 118.706 41.8149 118.556 41.7624 118.416C41.7099 118.276 41.6284 118.148 41.5232 118.042C41.4138 117.976 41.2872 117.946 41.16 117.954C41.0329 117.963 40.9113 118.01 40.8115 118.089L40.4513 118.289L40.6031 120.865L40.9632 120.665C41.2588 120.502 41.4936 120.249 41.6354 119.943Z" fill="#7F7F7F"/>
<path d="M45.2598 118.652C45.187 118.9 45.0701 119.132 44.9147 119.338C44.7575 119.549 44.5571 119.724 44.3269 119.851C44.2038 119.96 44.0505 120.028 43.8875 120.047C43.7246 120.066 43.5597 120.034 43.4151 119.957C43.2704 119.879 43.1529 119.76 43.0783 119.614C43.0036 119.467 42.9754 119.302 42.9975 119.139L43.8075 118.69C43.8117 118.815 43.8654 118.935 43.9571 119.021C44.0002 119.049 44.051 119.064 44.1026 119.062C44.1542 119.061 44.2041 119.044 44.2457 119.013C44.3447 118.958 44.4233 118.872 44.4701 118.769C44.5221 118.659 44.5449 118.537 44.5363 118.416C44.5377 118.371 44.5299 118.326 44.5134 118.284C44.4968 118.242 44.4719 118.204 44.4402 118.172C44.3829 118.124 44.3117 118.096 44.2371 118.091C44.1267 118.085 44.0161 118.087 43.9058 118.094C43.7377 118.108 43.5686 118.104 43.4014 118.082C43.26 118.054 43.135 117.972 43.053 117.854C42.934 117.665 42.8723 117.446 42.8756 117.223C42.8591 116.961 42.8935 116.699 42.9771 116.45C43.0577 116.206 43.1823 115.979 43.3448 115.781C43.5012 115.587 43.6935 115.425 43.9112 115.304C44.032 115.213 44.1744 115.156 44.3244 115.137C44.4744 115.118 44.6267 115.139 44.7661 115.197C44.8915 115.287 44.9939 115.405 45.0648 115.543C45.1358 115.68 45.1733 115.831 45.1744 115.986L44.3515 116.443C44.3422 116.333 44.2946 116.23 44.2168 116.151C44.1789 116.126 44.1338 116.112 44.0879 116.114C44.042 116.115 43.9977 116.131 43.9614 116.159C43.8708 116.21 43.7977 116.288 43.7519 116.381C43.6996 116.488 43.6774 116.608 43.6878 116.726C43.6866 116.769 43.6938 116.811 43.709 116.851C43.7242 116.89 43.7472 116.927 43.7765 116.957C43.8307 117.005 43.8998 117.033 43.9721 117.036C44.0824 117.042 44.193 117.042 44.3034 117.036C44.4737 117.021 44.6452 117.026 44.8142 117.052C44.9574 117.084 45.0836 117.168 45.1679 117.287C45.2891 117.478 45.3522 117.7 45.3496 117.925C45.3618 118.171 45.3315 118.417 45.2598 118.652Z" fill="#7F7F7F"/>
<path d="M32.0571 101.863L32.0464 101.398L32.6951 101.054L32.7571 103.54L32.3777 103.741L32.3275 101.721L32.0571 101.863Z" fill="#7F7F7F"/>
<path d="M33.0106 102.125C32.9899 101.284 33.2097 100.742 33.67 100.499C33.9144 100.369 34.0932 100.388 34.2065 100.557C34.3413 100.815 34.4048 101.104 34.3903 101.395C34.4069 101.738 34.3597 102.081 34.2513 102.406C34.1639 102.671 33.9784 102.892 33.733 103.024C33.2714 103.267 33.0302 102.968 33.0095 102.126L33.0106 102.125ZM34.0344 101.583C34.0392 101.396 34.0114 101.21 33.9521 101.033C33.9037 100.919 33.8135 100.897 33.6817 100.968C33.6153 101.003 33.5574 101.052 33.512 101.112C33.4666 101.172 33.4348 101.242 33.4188 101.315C33.373 101.519 33.355 101.728 33.3654 101.937C33.3611 102.125 33.3893 102.312 33.4488 102.491C33.4969 102.605 33.5877 102.625 33.7213 102.555C33.7871 102.519 33.8443 102.47 33.8892 102.41C33.934 102.35 33.9653 102.281 33.981 102.208C34.0268 102.003 34.0448 101.793 34.0344 101.583Z" fill="#7F7F7F"/>
<path d="M34.6289 101.268C34.6075 100.427 34.8276 99.8852 35.2893 99.6416C35.533 99.5126 35.7111 99.5322 35.8236 99.7004C35.9587 99.9578 36.0225 100.247 36.0085 100.537C36.025 100.88 35.9779 101.223 35.8696 101.548C35.7827 101.813 35.5966 102.035 35.3502 102.166C34.8893 102.41 34.6488 102.111 34.6289 101.268ZM35.6527 100.726C35.657 100.539 35.6291 100.353 35.5704 100.176C35.5219 100.062 35.4318 100.04 35.3 100.11C35.2336 100.145 35.1757 100.195 35.1303 100.255C35.085 100.315 35.0531 100.384 35.0371 100.458C34.9916 100.662 34.9736 100.871 34.9837 101.08C34.979 101.268 35.0068 101.455 35.066 101.634C35.1151 101.747 35.2059 101.768 35.3395 101.698C35.4053 101.662 35.4626 101.613 35.5074 101.553C35.5523 101.493 35.5836 101.425 35.5992 101.351C35.6448 101.146 35.6628 100.936 35.6527 100.726Z" fill="#7F7F7F"/>
<path d="M37.7084 100.916L37.2189 100.313L37.2403 101.164L36.8791 101.357L36.8149 98.7503L37.1762 98.5601L37.2114 100.024L37.6581 98.9672L38.0856 98.7417L37.5128 100.029L38.1487 100.684L37.7084 100.916Z" fill="#7F7F7F"/>
<path d="M39.1401 98.2745C39.1861 98.2937 39.2271 98.3233 39.2599 98.3609C39.2927 98.3985 39.3164 98.4432 39.3293 98.4914L39.3186 98.0864L39.6777 97.8972L39.7247 99.855C39.7299 100.034 39.7079 100.212 39.6595 100.384C39.6133 100.551 39.5373 100.708 39.4351 100.848C39.3366 100.981 39.2095 101.091 39.0632 101.168C38.991 101.219 38.9075 101.251 38.82 101.263C38.7324 101.274 38.6435 101.263 38.5609 101.233C38.489 101.187 38.4293 101.124 38.3868 101.05C38.3444 100.977 38.3205 100.893 38.3172 100.808L38.6731 100.619C38.6786 100.655 38.6928 100.689 38.7144 100.718C38.736 100.748 38.7644 100.771 38.7971 100.787C38.8358 100.798 38.8764 100.8 38.9161 100.794C38.9558 100.787 38.9936 100.772 39.0268 100.75C39.136 100.689 39.224 100.597 39.279 100.486C39.3459 100.349 39.3765 100.197 39.3677 100.045L39.357 99.6285C39.3262 99.7756 39.267 99.9153 39.1829 100.04C39.1064 100.158 39.0017 100.254 38.8783 100.321C38.8302 100.351 38.7768 100.37 38.721 100.379C38.6652 100.388 38.6082 100.386 38.5534 100.372C38.5003 100.354 38.452 100.324 38.4117 100.284C38.3715 100.245 38.3403 100.197 38.3204 100.145C38.256 99.9889 38.224 99.8216 38.2264 99.6531C38.2209 99.4591 38.2439 99.2654 38.2948 99.0781C38.3387 98.9115 38.4114 98.7538 38.5096 98.6122C38.5926 98.4918 38.7023 98.3923 38.8302 98.3215C38.8755 98.2919 38.9266 98.2725 38.98 98.2644C39.0335 98.2563 39.0881 98.2597 39.1401 98.2745ZM38.6859 98.9905C38.6176 99.1375 38.5858 99.2988 38.5929 99.4607C38.5874 99.5249 38.5945 99.5895 38.614 99.651C38.6334 99.7124 38.6648 99.7694 38.7062 99.8187C38.7447 99.8498 38.7924 99.8673 38.8419 99.8684C38.8914 99.8696 38.9399 99.8544 38.9798 99.8251C39.0983 99.7571 39.1919 99.653 39.247 99.528C39.3159 99.3826 39.3489 99.2228 39.3432 99.0621C39.3485 98.9977 39.3409 98.9328 39.3209 98.8714C39.3009 98.8099 39.2689 98.753 39.2267 98.7041C39.1884 98.6724 39.1406 98.6543 39.091 98.6526C39.0413 98.6508 38.9925 98.6656 38.952 98.6944C38.833 98.7613 38.7403 98.8653 38.6859 98.9905Z" fill="#7F7F7F"/>
<defs>
<linearGradient id="paint0_linear_272_930" x1="57.8017" y1="75.8248" x2="103.865" y2="35.6232" gradientUnits="userSpaceOnUse">
<stop stop-color="#FC17F7"/>
<stop offset="1" stop-color="#1AD99D"/>
</linearGradient>
</defs>
</svg>
