<svg width="134" height="140" viewBox="0 0 134 140" fill="none" xmlns="http://www.w3.org/2000/svg">
<path d="M29.6099 27.2056C27.5612 31.8995 18.1315 60.0535 17.9718 76.9879C17.7704 89.0041 18.717 101.012 20.7989 112.848L37.5445 122.635C42.5816 110.936 45.267 98.3599 45.4477 85.624C45.8695 64.0307 33.8155 29.5572 33.8155 29.5572L29.6099 27.2056Z" fill="#2C2F24"/>
<path d="M33.8152 29.5572C33.8152 29.5572 42.6669 69.6861 43.3824 82.9637C44.0979 96.2413 37.5442 122.635 37.5442 122.635L84.3608 95.5911C84.3608 95.5911 90.4379 70.2454 90.0301 58.0912C89.4521 40.8398 80.4104 2.42749 80.4104 2.42749L33.8152 29.5572Z" fill="#ED5700"/>
<path d="M29.6096 27.2055L33.8152 29.5571L80.4093 2.42735L76.8003 0L29.6096 27.2055Z" fill="#3E3E3E"/>
<path d="M79.3687 94.5609L46.043 113.801L47.904 104.132L81.2309 84.8899L79.3687 94.5609Z" fill="#7A2E11"/>
<path d="M78.5738 89.7528L48.5308 107.115L49.005 104.65L79.0481 87.2893L78.5738 89.7528Z" fill="white"/>
<path d="M81.804 28.8336L45.819 49.61L44.3076 44.3311L80.4091 23.4883L81.804 28.8336Z" fill="white"/>
<path d="M77.2759 11.004L41.2898 31.7793L40.5347 29.1737L76.6362 8.33081L77.2759 11.004Z" fill="white"/>
<path d="M30.7644 37.8892C30.7644 37.8892 22.7295 64.8429 23.1339 82.5383C23.5383 100.232 26.941 110.143 26.941 110.143C27.8782 104.976 28.4928 99.7556 28.781 94.5119C29.0805 88.8298 28.3266 80.0422 28.781 75.7876C29.3229 70.7033 29.0689 61.7106 30.1514 53.8633C31.7106 42.5714 30.7644 37.8892 30.7644 37.8892Z" fill="#ED5700"/>
<path d="M33.8153 46.2397C32.9855 52.0139 32.6541 57.8488 32.8248 63.6798C33.1942 72.3032 35.0622 80.8694 34.6077 85.5586C34.3164 88.5675 32.7502 95.8927 32.2188 100.055C31.1479 108.444 31.0022 113.801 31.0022 113.801C31.0022 113.801 38.4754 109.435 38.8797 85.5586C39.1279 70.7964 33.8153 46.2397 33.8153 46.2397Z" fill="#ED5700"/>
<path d="M70.7257 33.0355C71.6067 38.8842 68.9137 45.7992 64.7127 48.4806C60.5094 51.1608 56.3877 48.5924 55.5067 42.7426C54.6269 36.8927 57.3188 29.9777 61.5221 27.2974C65.7242 24.6172 69.8448 27.1856 70.7257 33.0355Z" fill="#7A2E11"/>
<path d="M67.9528 34.49C68.5343 38.3519 66.756 42.9188 63.9803 44.6889C61.2068 46.459 58.4846 44.7623 57.9031 40.9004C57.3216 37.0386 59.0999 32.4705 61.8745 30.7004C64.6503 28.9303 67.3713 30.6258 67.9528 34.49Z" fill="white"/>
<path d="M65.6679 85.3828C80.9685 87.6459 88.9754 71.7743 79.8417 59.9556C77.0069 56.3219 72.9634 53.8246 68.4449 52.9171C62.0205 50.5632 54.3166 51.1575 50.0632 56.0903C41.011 66.5851 54.51 83.7316 65.6679 85.3828Z" fill="#DBDFD0"/>
<path d="M60.4089 59.2529C61.84 62.7186 66.4802 65.0178 69.8969 65.8545C73.4348 66.7214 78.0425 66.4674 80.8101 63.7918C81.3692 63.3105 81.8252 62.7211 82.1509 62.0592C82.4766 61.3972 82.6653 60.6763 82.7055 59.9396C82.7458 59.203 82.6369 58.4658 82.3852 57.7723C82.1336 57.0788 81.7445 56.4433 81.2413 55.9038C78.3746 53.029 69.996 49.0063 63.4283 52.2261C62.1075 52.7716 61.0523 53.8119 60.4881 55.1249C59.924 56.4378 59.8956 57.9193 60.4089 59.2529ZM76.4204 57.0179C79.8033 60.797 74.0362 62.2245 71.5296 61.7502C69.2863 61.326 63.8862 59.6736 67.7574 56.6007C69.0216 55.6444 70.5813 55.1624 72.1645 55.2386C73.7478 55.3149 75.254 55.9446 76.4204 57.0179Z" fill="#7A2E11"/>
<path d="M67.7679 52.2995C68.2421 53.41 66.0199 53.8214 65.7449 52.5768C65.4885 51.4139 67.2656 51.1237 67.7679 52.2995Z" fill="white"/>
<path d="M79.2032 63.4704C79.6775 64.5809 77.454 64.9923 77.1802 63.7477C76.9238 62.5847 78.6998 62.2934 79.2032 63.4704Z" fill="white"/>
<path d="M64.3712 54.1032C65.4899 53.8503 66.3406 54.4586 66.0784 55.1333C65.6589 56.2159 64.4679 55.4538 64.0834 54.8105C64.0465 54.7467 64.0247 54.6754 64.0197 54.6019C64.0146 54.5284 64.0265 54.4547 64.0542 54.3864C64.082 54.3182 64.125 54.2572 64.1799 54.2081C64.2348 54.159 64.3003 54.1231 64.3712 54.1032Z" fill="white"/>
<path d="M79.5851 59.7656C80.7038 59.5139 81.5544 60.1211 81.2946 60.7958C80.8751 61.8772 79.6829 61.1162 79.2972 60.473C79.2604 60.4092 79.2386 60.3378 79.2336 60.2643C79.2285 60.1908 79.2403 60.1171 79.2681 60.0489C79.2959 59.9806 79.3388 59.9197 79.3938 59.8706C79.4487 59.8215 79.5141 59.7856 79.5851 59.7656Z" fill="white"/>
<path d="M70.983 51.5187C71.2301 51.5134 71.4753 51.5626 71.7013 51.6627C71.9272 51.7628 72.1284 51.9113 72.2905 52.0978C72.7031 52.5849 71.8023 54.0847 70.4971 52.6164C69.8807 51.923 70.6358 51.4954 70.983 51.5187Z" fill="white"/>
<path d="M64.7286 60.1457C64.9756 60.1408 65.2206 60.1903 65.4463 60.2906C65.672 60.3909 65.873 60.5395 66.0349 60.726C66.4486 61.2131 65.5478 62.714 64.2427 61.2446C63.6251 60.5524 64.3802 60.1224 64.7286 60.1457Z" fill="white"/>
<path d="M75.7816 54.0381C76.3304 53.6267 77.8931 53.5801 78.1728 54.6685C78.5387 56.0902 76.2291 55.8385 75.5567 54.8981C75.476 54.7534 75.4543 54.5831 75.4962 54.4229C75.5381 54.2626 75.6404 54.1247 75.7816 54.0381Z" fill="white"/>
<path d="M73.0337 62.2816C73.5825 61.8703 75.1452 61.8225 75.4249 62.9109C75.7896 64.3338 73.4812 64.0832 72.8088 63.1416C72.7278 62.997 72.706 62.8267 72.7479 62.6663C72.7898 62.506 72.8923 62.3681 73.0337 62.2816Z" fill="white"/>
<path d="M79.0553 56.4096C80.3965 55.954 81.4616 57.8103 80.7869 58.4104C80.6273 58.5442 80.4333 58.6304 80.2271 58.6592C80.0208 58.688 79.8106 58.6584 79.6204 58.5736C79.0494 58.3324 78.9282 57.7719 78.7138 57.2498C78.6643 57.0921 78.6713 56.922 78.7336 56.7689C78.7959 56.6157 78.9096 56.4879 79.0553 56.4096Z" fill="white"/>
<path d="M68.3224 62.5217C69.6649 62.0661 70.7288 63.9212 70.0541 64.5214C69.8944 64.6554 69.7002 64.7418 69.4937 64.7707C69.2872 64.7996 69.0767 64.7697 68.8864 64.6845C68.3154 64.4445 68.1954 63.8828 67.981 63.3619C67.9311 63.204 67.938 63.0337 68.0003 62.8803C68.0626 62.7269 68.1766 62.6001 68.3224 62.5217Z" fill="white"/>
<path d="M61.7592 55.9471C63.1005 55.4926 64.1656 57.349 63.4908 57.948C63.3313 58.0818 63.1373 58.1681 62.931 58.1969C62.7247 58.2258 62.5145 58.196 62.3244 58.1111C61.7533 57.8699 61.6333 57.3094 61.4177 56.7885C61.3677 56.6306 61.3744 56.4602 61.4367 56.3067C61.4991 56.1533 61.6132 56.0265 61.7592 55.9483V55.9471Z" fill="white"/>
<path d="M49.0773 85.1628C51.6235 87.9165 56.7742 88.4607 60.2679 88.0586C63.8862 87.6414 68.1198 85.8037 69.7862 82.3334C70.1432 81.6878 70.3662 80.9766 70.4417 80.2427C70.5172 79.5088 70.4437 78.7671 70.2256 78.0623C70.0076 77.3575 69.6494 76.7039 69.1726 76.1409C68.6958 75.5778 68.1102 75.1169 67.4509 74.7857C63.7638 73.0866 54.51 72.2243 49.4677 77.5242C48.4185 78.4945 47.7903 79.8367 47.7173 81.264C47.6444 82.6913 48.1325 84.0905 49.0773 85.1628ZM63.3163 77.5055C67.8005 79.8746 62.8898 83.2156 60.3739 83.6421C58.1237 84.0243 52.4847 84.3494 55.0484 80.1228C55.9013 78.7867 57.1964 77.7927 58.7076 77.3143C60.2187 76.8359 61.85 76.9036 63.3163 77.5055Z" fill="#7A2E11"/>
<path d="M53.5641 76.0859C54.395 76.9623 52.4524 78.1206 51.7637 77.0485C51.1204 76.0463 52.6843 75.1572 53.5641 76.0859Z" fill="white"/>
<path d="M68.1676 82.5906C68.9973 83.4669 67.0559 84.6241 66.366 83.552C65.7227 82.551 67.2866 81.6619 68.1676 82.5906Z" fill="white"/>
<path d="M51.0044 78.9571C51.9658 78.3313 52.975 78.6075 52.9645 79.33C52.947 80.4895 51.5638 80.19 50.9799 79.7204C50.923 79.6734 50.8777 79.6141 50.8473 79.5469C50.8169 79.4797 50.8023 79.4064 50.8047 79.3327C50.8071 79.259 50.8263 79.1868 50.8609 79.1217C50.8955 79.0566 50.9446 79.0003 51.0044 78.9571Z" fill="white"/>
<path d="M67.2386 78.9828C68.2012 78.3581 69.2104 78.632 69.1987 79.3557C69.1812 80.5163 67.7992 80.2168 67.2153 79.746C67.1584 79.6992 67.1129 79.6399 67.0824 79.5728C67.052 79.5056 67.0373 79.4324 67.0395 79.3587C67.0418 79.285 67.0609 79.2128 67.0954 79.1476C67.1299 79.0824 67.1789 79.026 67.2386 78.9828Z" fill="white"/>
<path d="M56.3079 74.2366C56.5377 74.1461 56.7846 74.1072 57.0311 74.1227C57.2775 74.1382 57.5176 74.2077 57.7342 74.3263C58.2913 74.6386 57.9673 76.3586 56.2333 75.4357C56.1062 75.3894 55.9974 75.3032 55.9233 75.19C55.8491 75.0768 55.8136 74.9427 55.822 74.8077C55.8304 74.6726 55.8823 74.5439 55.9698 74.4408C56.0574 74.3376 56.176 74.2656 56.3079 74.2354V74.2366Z" fill="white"/>
<path d="M53.4388 84.4997C53.6688 84.4092 53.9158 84.3704 54.1625 84.3859C54.4092 84.4014 54.6494 84.4709 54.8663 84.5894C55.4221 84.9028 55.0982 86.6229 53.3654 85.6988C53.2382 85.6526 53.1294 85.5665 53.0552 85.4534C52.9809 85.3403 52.9453 85.2062 52.9536 85.0712C52.9618 84.9362 53.0135 84.8074 53.101 84.7042C53.1884 84.601 53.3069 84.53 53.4388 84.4997Z" fill="white"/>
<path d="M61.6837 74.9335C62.0555 74.3566 63.504 73.7705 64.1437 74.6934C64.9816 75.9007 62.7279 76.467 61.77 75.8179C61.6441 75.7102 61.5648 75.558 61.5487 75.3931C61.5326 75.2282 61.581 75.0635 61.6837 74.9335Z" fill="white"/>
<path d="M61.9693 83.6186C62.3411 83.0406 63.7896 82.4545 64.4305 83.3786C65.2672 84.5847 63.0146 85.1522 62.0567 84.5019C61.931 84.3944 61.8517 84.2425 61.8354 84.0778C61.8191 83.9132 61.8671 83.7487 61.9693 83.6186Z" fill="white"/>
<path d="M65.5769 76.0208C66.6758 75.127 68.3189 76.4986 67.8947 77.2945C67.7916 77.4755 67.6397 77.624 67.4563 77.7229C67.273 77.8218 67.0655 77.8671 66.8576 77.8538C66.2376 77.8259 65.93 77.3411 65.5477 76.9274C65.446 76.7966 65.3932 76.6344 65.3986 76.4688C65.4039 76.3032 65.467 76.1447 65.5769 76.0208Z" fill="white"/>
<path d="M57.6345 85.4798C58.7346 84.5848 60.3777 85.9575 59.9535 86.7534C59.8504 86.9345 59.6985 87.0829 59.5151 87.1818C59.3317 87.2807 59.1243 87.3261 58.9163 87.3128C58.2952 87.2837 57.9888 86.8001 57.6065 86.3864C57.5049 86.2557 57.452 86.0935 57.4571 85.928C57.4622 85.7625 57.525 85.604 57.6345 85.4798Z" fill="white"/>
<path d="M49.1974 81.5945C50.2963 80.6995 51.9394 82.0723 51.5164 82.8682C51.413 83.0492 51.2609 83.1975 51.0773 83.2962C50.8937 83.3949 50.6861 83.44 50.4781 83.4264C49.8581 83.3984 49.5505 82.9136 49.1682 82.5011C49.0667 82.3703 49.0141 82.2081 49.0194 82.0426C49.0247 81.877 49.0877 81.7186 49.1974 81.5945Z" fill="white"/>
<path d="M45.7401 67.4742C46.5209 72.252 53.3718 74.8576 56.6918 70.92C58.9129 68.2864 57.5191 65.9243 55.2025 64.576C51.7765 62.1464 44.8044 61.7478 45.7401 67.4742ZM51.0598 65.8311C51.9367 65.736 52.8224 65.8945 53.6118 66.2879C54.3029 66.7342 54.9426 67.3472 54.8203 68.0732C54.6396 69.1499 53.1772 69.3818 52.3148 69.2373C50.6916 68.9646 48.0964 66.4778 51.0598 65.8311Z" fill="#7A2E11"/>
<path d="M56.9349 66.6878C57.6387 67.4301 55.9921 68.4124 55.4083 67.5035C54.8618 66.654 56.1891 65.9 56.9349 66.6878Z" fill="white"/>
<path d="M53.4692 69.9028C54.2849 69.3726 55.1391 69.6056 55.1298 70.2186C55.1158 71.2021 53.9435 70.9481 53.4482 70.5495C53.3999 70.5099 53.3613 70.4596 53.3355 70.4026C53.3096 70.3457 53.2973 70.2835 53.2993 70.221C53.3013 70.1585 53.3177 70.0973 53.3472 70.0421C53.3766 69.9869 53.4184 69.9392 53.4692 69.9028Z" fill="white"/>
<path d="M46.6628 65.4759C47.4774 64.9457 48.3327 65.1799 48.3234 65.7928C48.3083 66.7764 47.1371 66.5223 46.6419 66.1238C46.5933 66.0841 46.5545 66.0338 46.5285 65.9767C46.5026 65.9196 46.4901 65.8573 46.4922 65.7947C46.4942 65.732 46.5106 65.6706 46.5402 65.6153C46.5699 65.56 46.6118 65.5123 46.6628 65.4759Z" fill="white"/>
<path d="M51.0464 70.1336C51.2414 70.057 51.4508 70.0243 51.6598 70.0375C51.8688 70.0508 52.0724 70.1099 52.256 70.2105C52.728 70.4762 52.4541 71.934 50.9835 71.1509C50.8758 71.1117 50.7836 71.0387 50.7207 70.9428C50.6579 70.8469 50.6277 70.7332 50.6348 70.6187C50.6419 70.5043 50.6858 70.3952 50.76 70.3078C50.8342 70.2203 50.9347 70.1592 51.0464 70.1336Z" fill="white"/>
<path d="M47.5821 67.8915C47.777 67.8147 47.9864 67.7818 48.1955 67.7951C48.4045 67.8084 48.6081 67.8676 48.7917 67.9684C49.2625 68.2341 48.9886 69.6919 47.5192 68.9088C47.4119 68.8693 47.3202 68.7963 47.2577 68.7005C47.1953 68.6048 47.1653 68.4915 47.1724 68.3773C47.1795 68.2632 47.2231 68.1545 47.297 68.0671C47.3708 67.9798 47.4708 67.9187 47.5821 67.8927V67.8915Z" fill="white"/>
<path d="M49.1171 63.8769C49.4317 63.3875 50.6588 62.8911 51.203 63.6742C51.9115 64.6973 50.0027 65.1774 49.1905 64.6262C49.0841 64.5349 49.017 64.4059 49.0033 64.2663C48.9896 64.1267 49.0304 63.9872 49.1171 63.8769Z" fill="white"/>
<path d="M72.6851 74.2388C73.4659 79.0166 80.3156 81.6223 83.6356 77.6858C85.8579 75.0511 84.4642 72.689 82.1463 71.3407C78.7203 68.9122 71.7494 68.5125 72.6851 74.2388ZM78.0036 72.5957C78.881 72.5005 79.7673 72.6595 80.5568 73.0537C81.2467 73.4989 81.8876 74.113 81.7653 74.8378C81.5847 75.9146 80.1222 76.1476 79.2587 76.0031C77.6366 75.7293 75.0402 73.2425 78.0036 72.5957Z" fill="#7A2E11"/>
<path d="M83.8796 73.4522C84.5834 74.1956 82.938 75.1768 82.353 74.2679C81.8076 73.4195 83.1338 72.6656 83.8796 73.4522Z" fill="white"/>
<path d="M80.4141 76.6685C81.2299 76.1383 82.0852 76.3713 82.0759 76.9831C82.0607 77.9678 80.8884 77.7138 80.3943 77.3141C80.3461 77.2745 80.3076 77.2243 80.2818 77.1675C80.2561 77.1107 80.2436 77.0487 80.2456 76.9864C80.2475 76.924 80.2637 76.8629 80.2929 76.8078C80.3221 76.7527 80.3636 76.705 80.4141 76.6685Z" fill="white"/>
<path d="M73.6072 72.2415C74.4217 71.7113 75.2771 71.9455 75.2677 72.5585C75.2537 73.542 74.0814 73.2868 73.5862 72.8894C73.538 72.8495 73.4996 72.7991 73.4739 72.7421C73.4482 72.685 73.4359 72.6229 73.438 72.5603C73.44 72.4978 73.4563 72.4366 73.4856 72.3813C73.5149 72.326 73.5565 72.2782 73.6072 72.2415Z" fill="white"/>
<path d="M77.992 76.8992C78.1868 76.8228 78.396 76.7901 78.6048 76.8034C78.8136 76.8167 79.0169 76.8757 79.2005 76.9761C79.6724 77.2418 79.3986 78.6985 77.9291 77.9165C77.822 77.8767 77.7306 77.8035 77.6683 77.7077C77.606 77.6119 77.5762 77.4986 77.5833 77.3845C77.5903 77.2705 77.6339 77.1617 77.7075 77.0743C77.7811 76.987 77.8809 76.9255 77.992 76.8992Z" fill="white"/>
<path d="M74.5281 74.6573C74.7229 74.5807 74.9321 74.5479 75.1409 74.5612C75.3497 74.5745 75.5531 74.6336 75.7366 74.7342C76.2085 74.9987 75.9347 76.4577 74.4652 75.6746C74.3574 75.6354 74.2652 75.5624 74.2024 75.4664C74.1395 75.3705 74.1094 75.2569 74.1165 75.1424C74.1236 75.0279 74.1675 74.9188 74.2417 74.8314C74.3159 74.744 74.4164 74.6829 74.5281 74.6573Z" fill="white"/>
<path d="M76.0612 70.6417C76.3758 70.1534 77.6041 69.657 78.1471 70.4401C78.8556 71.4621 76.9468 71.9422 76.1346 71.3922C76.0282 71.3008 75.9611 71.1719 75.9474 71.0323C75.9337 70.8927 75.9745 70.752 76.0612 70.6417Z" fill="white"/>
<path d="M133.931 46.2014V92.7815H85.3738V46.2014H133.931Z" fill="#ED5700"/>
<path d="M133.931 92.7816C133.931 100.329 123.062 106.446 109.653 106.446C96.2439 106.446 85.3738 100.328 85.3738 92.7816C85.3738 85.2351 96.2439 79.116 109.653 79.116C123.062 79.116 133.931 85.2339 133.931 92.7816Z" fill="#ED5700"/>
<path d="M128.979 56.1495V98.6148C132.074 96.3215 133.931 93.4711 133.931 90.3679V47.9026C133.931 51.0035 132.074 53.855 128.979 56.1495Z" fill="white"/>
<path d="M109.653 61.5671C96.2439 61.5671 85.3738 55.4492 85.3738 47.9026V90.3679C85.3738 97.9145 96.2439 104.034 109.653 104.034C111.716 104.03 113.776 103.876 115.817 103.572V61.1056C113.776 61.4099 111.716 61.5641 109.653 61.5671Z" fill="white"/>
<path d="M115.816 61.106V103.572C120.538 103 125.052 101.3 128.979 98.6152V56.1499C125.053 58.8343 120.538 60.5342 115.816 61.106Z" fill="white"/>
<path d="M109.454 68.6407C96.1389 68.579 85.3726 62.4902 85.3726 54.9797V58.4838C85.3726 65.9943 96.1378 72.0831 109.454 72.1437V68.6407Z" fill="#7A2E11"/>
<path d="M109.454 76.051C96.1389 75.9904 85.3726 69.9004 85.3726 62.3911V85.9515C85.3726 93.4608 96.1378 99.5507 109.454 99.6113V76.051Z" fill="#7A2E11"/>
<path d="M109.653 36.9092C98.9634 36.9092 89.9088 40.8013 86.6658 46.2014H132.639C129.397 40.8013 120.341 36.9092 109.653 36.9092Z" fill="#F88C3D"/>
<path d="M133.931 46.2014C133.931 53.748 123.062 59.8659 109.653 59.8659C96.2439 59.8659 85.3738 53.748 85.3738 46.2014C85.3738 38.6548 96.2439 32.5369 109.653 32.5369C123.062 32.5369 133.931 38.6548 133.931 46.2014Z" fill="#3E3E3E"/>
<path d="M109.653 36.6842C120.563 36.6842 129.54 41.3315 130.695 47.3002C130.781 46.8704 130.825 46.4334 130.827 45.9951C130.827 39.4134 121.346 34.0774 109.653 34.0774C97.9574 34.0774 88.4775 39.4145 88.4775 45.9951C88.4794 46.4334 88.5235 46.8704 88.6092 47.3002C89.7652 41.3315 98.7405 36.6842 109.653 36.6842Z" fill="#ED5700"/>
<path d="M109.653 57.9139C120.564 57.9139 129.54 53.2678 130.695 47.299C129.54 41.3326 120.564 36.6853 109.653 36.6853C98.7409 36.6853 89.7656 41.3314 88.6096 47.299C89.7656 53.2678 98.7409 57.9139 109.653 57.9139Z" fill="#ED5700"/>
<path d="M126.502 47.3002C126.502 52.1561 118.959 56.0925 109.653 56.0925C100.347 56.0925 92.8025 52.1561 92.8025 47.299C92.8025 42.442 100.347 38.5044 109.653 38.5044C118.959 38.5044 126.503 42.4432 126.503 47.299L126.502 47.3002Z" fill="#ED5700"/>
<path d="M124.963 47.1627C124.963 51.387 118.199 54.813 109.858 54.813C101.518 54.813 94.7554 51.387 94.7554 47.1627C94.7554 42.9384 101.518 39.5112 109.858 39.5112C118.199 39.5112 124.963 42.9373 124.963 47.1627Z" fill="#3E3E3E"/>
<path d="M109.174 44.2704C105.733 42.2836 102.392 42.7147 100.992 43.5235C97.41 45.5907 96.3507 47.1243 93.632 49.2696C91.496 50.9547 93.1822 52.4183 94.0049 52.9695L93.9991 52.9742L94.0527 53.001L94.0993 53.0325L94.1051 53.0278C95.0954 53.5214 96.1804 53.7962 97.2863 53.8334C98.3922 53.8706 99.4931 53.6693 100.514 53.2434C104.232 51.6737 106.886 51.0619 110.468 48.9946C111.869 48.1847 112.914 46.4298 109.174 44.2704ZM103.591 48.8408L101.258 47.4937C99.9235 46.7246 100.093 45.367 101.632 44.4779C102.426 44.0376 103.311 43.7888 104.218 43.7512C105.124 43.7135 106.027 43.8882 106.855 44.2611L109.189 45.6082C110.522 46.3773 110.354 47.7349 108.814 48.6241C108.02 49.0645 107.135 49.3134 106.228 49.351C105.321 49.3887 104.418 49.2139 103.591 48.8408Z" fill="#F4F4F4"/>
<path d="M98.3372 51.3556C98.3372 52.0432 97.3479 52.6002 96.1266 52.6002C94.9054 52.6002 93.916 52.0432 93.916 51.3568C93.916 50.6693 94.9065 50.1111 96.1266 50.1111C97.3467 50.1111 98.3372 50.6681 98.3372 51.3556Z" fill="#ED5700"/>
<path d="M23.4523 104.02L19.1196 101.508L24.1957 92.7083L28.5261 95.23L23.4523 104.02Z" fill="#D7E7F7"/>
<path d="M28.5269 95.23C29.9817 96.7775 31.868 97.8522 33.941 98.3146L28.866 107.109L23.4531 104.021L28.5269 95.23Z" fill="#F8F9FC"/>
<path d="M20.8593 102.552L23.4533 104.02L28.8662 107.108C29.2047 107.301 29.5017 107.559 29.7401 107.868C29.9786 108.176 30.1537 108.528 30.2555 108.905C30.3573 109.281 30.3837 109.673 30.3333 110.06C30.2829 110.446 30.1565 110.819 29.9616 111.156L14.8684 137.29C14.3333 138.216 13.4532 138.893 12.4204 139.172C11.3877 139.451 10.2865 139.31 9.35762 138.779L2.27832 134.733L20.8593 102.552Z" fill="#F4F4F4"/>
<path d="M2.27819 134.733L0 128.958L16.53 100.032L20.8603 102.552L2.27819 134.733Z" fill="#C4C4C4"/>
<path d="M30.9119 97.1269L26.5735 94.6086C25.6936 94.0924 24.8926 93.4523 24.195 92.708C18.2974 86.4363 19.0793 72.5748 26.5688 59.6212C27.9581 57.2028 29.5419 54.9014 31.3046 52.74L35.635 55.2606C33.8747 57.4231 32.291 59.7234 30.8991 62.1394C23.4143 75.0931 22.63 88.9557 28.5254 95.2298C29.2267 95.9723 30.0303 96.6111 30.9119 97.1269Z" fill="#C4C4C4"/>
<path d="M35.6348 55.2595L31.3044 52.7401C34.2235 49.0756 37.7746 45.963 41.79 43.5492C43.8328 42.3363 46.0533 41.4516 48.3705 40.9272L52.7055 43.4525C50.3882 43.9742 48.1678 44.8582 46.1261 46.0721C42.1092 48.485 38.5561 51.5968 35.6348 55.2606V55.2595Z" fill="#C4C4C4"/>
<path d="M52.7068 43.4525L48.3718 40.926C51.3008 40.1999 54.3951 40.5861 57.0558 42.0098L61.3942 44.5339C58.7337 43.1055 55.6363 42.7199 52.7068 43.4525Z" fill="#C4C4C4"/>
<path d="M61.3947 44.534C69.8363 49.3468 69.8829 65.0413 61.4938 79.5739C57.301 86.849 51.7867 92.4565 46.2666 95.6413C41.9549 98.1339 37.6363 99.1466 33.941 98.3145C31.8676 97.8523 29.9809 96.7777 28.5258 95.2299C22.6305 88.9559 23.4147 75.0933 30.8996 62.1396C35.1005 54.8587 40.6066 49.2547 46.1268 46.0722C51.6492 42.8851 57.1716 42.1218 61.3947 44.534ZM57.8592 77.4938C64.2509 66.4233 64.2183 54.4613 57.7799 50.7906C54.5625 48.9576 50.3522 49.5437 46.1489 51.9734C41.2973 54.9903 37.301 59.2016 34.5423 64.2046C28.1448 75.2844 28.1774 87.2429 34.6158 90.9171C37.8309 92.7525 42.0458 92.1652 46.2526 89.7413C51.1062 86.7198 55.1026 82.5026 57.8592 77.4938Z" fill="#F4F4F4"/>
<path opacity="0.45" d="M46.1487 51.9733C50.352 49.5448 54.5623 48.9587 57.7797 50.7917C64.2181 54.4624 64.2507 66.4233 57.859 77.4949C55.1024 82.5037 51.106 86.7209 46.2524 89.7424C42.0456 92.1663 37.8307 92.7536 34.6156 90.9194C28.1772 87.244 28.1446 75.2855 34.541 64.2057C37.2996 59.2027 41.2959 54.9914 46.1475 51.9745L46.1487 51.9733Z" fill="white"/>
</svg>
