<svg width="126" height="137" viewBox="0 0 126 137" fill="none" xmlns="http://www.w3.org/2000/svg">
<path d="M29.1495 54.7283V74.2719L19.8609 68.9121L17.6239 67.614L10.3667 63.4264V43.8828L17.6781 48.1069L19.8886 49.3774L29.1495 54.7283Z" fill="#C4C4C4"/>
<path opacity="0.5" d="M27.4877 58.7977V55.1829L24.1836 53.2754V56.8902C24.2154 57.4042 24.3565 57.9056 24.5976 58.3608C24.8386 58.816 25.174 59.2145 25.5813 59.5297V62.0431L24.47 61.4018V61.9878L27.2013 63.5658V62.9797L26.09 62.3373V59.8238C26.8751 60.139 27.4877 59.7431 27.4877 58.7977Z" fill="#3C3C3B"/>
<path d="M47.9408 43.8828V63.4264L40.1019 67.9545L37.8649 69.2428L29.1492 74.2719V54.7294L37.8649 49.6992L40.1019 48.411C40.1019 48.4021 47.9408 43.8828 47.9408 43.8828Z" fill="#E5E5E5"/>
<path d="M47.941 43.8828L40.1021 48.4022C40.1021 48.411 37.8651 49.6992 37.8651 49.6992L29.1493 54.7283L19.8884 49.3775L17.6769 48.1069C17.6691 48.1069 10.3677 43.8828 10.3677 43.8828L19.5656 38.5773L21.7771 37.2968L29.1493 33.0374L36.0052 36.9927L38.2145 38.2721L47.941 43.8828Z" fill="#F4F4F4"/>
<path opacity="0.3" d="M40.102 48.4022V67.9546L37.865 69.2429V49.6639L28.6395 44.0709L26.4832 42.765L19.5654 38.5774L21.7759 37.2969L28.6395 41.4579L30.7957 42.765L40.102 48.4022Z" fill="#1D1D1B"/>
<path opacity="0.3" d="M38.2148 38.2723L30.7961 42.7651L28.6398 44.071L19.8887 49.3788C19.861 49.3953 19.861 68.9124 19.861 68.9124L17.624 67.6142V48.1337C17.6782 48.1071 26.4835 42.7651 26.4835 42.7651L28.6398 41.4581L36.0043 36.9929L38.2148 38.2723Z" fill="#1D1D1B"/>
<path d="M61.2533 70.9889V81.0648L58.0676 82.9081L55.8306 84.1963L51.8652 86.4875V76.4105L52.877 75.8278L53.3603 75.5513L55.7587 74.1547C55.7675 74.1547 57.978 72.8842 57.978 72.8842L61.2434 70.9878L61.2533 70.9889Z" fill="#E5E5E5"/>
<path d="M37.4097 68.0576V78.1346L51.8677 86.4843V76.4074L37.4097 68.0576Z" fill="#C4C4C4"/>
<path d="M61.289 71.0145C61.2536 71.0333 57.9959 72.8943 57.9959 72.8943L55.7766 74.166L53.3605 75.5526L51.8655 76.4019L41.7001 70.5412L37.4141 68.0621L41.6735 65.6194L43.8928 64.3478L46.8276 62.667L61.2436 70.9891C61.2576 70.9992 61.2724 71.0081 61.2879 71.0156L61.289 71.0145Z" fill="#F4F4F4"/>
<path opacity="0.3" d="M58.0679 72.9386V82.9083L55.8309 84.1954V74.1992L55.7756 74.1638L41.6736 65.6183L43.8929 64.3467L57.9783 72.8844C57.996 72.8933 58.0679 72.9386 58.0679 72.9386Z" fill="#1D1D1B"/>
<path d="M23.8442 63.4231V73.499L20.6585 75.3423L18.4215 76.6305L14.4573 78.9217V68.8458L15.468 68.2642L15.9512 67.9866L18.3507 66.5912C18.3585 66.5912 20.5689 65.3195 20.5689 65.3195L23.8354 63.4231H23.8442Z" fill="#E5E5E5"/>
<path d="M0 60.4917V70.5687L14.4581 78.9184V68.8414L0 60.4917Z" fill="#C4C4C4"/>
<path d="M23.8792 63.4508C23.8438 63.4674 20.5861 65.3284 20.5861 65.3284L18.3668 66.6001L15.9507 67.9867L14.4568 68.8371L4.29137 62.9764L0.00537109 60.4973L4.26484 58.0535L6.48414 56.783L9.41888 55.1011L23.8349 63.4232C23.8489 63.4333 23.8637 63.4433 23.8792 63.4508Z" fill="#F4F4F4"/>
<path opacity="0.3" d="M20.6581 65.3738V75.3424L18.4211 76.6306V66.6355L18.3669 66.6001C18.3492 66.5912 4.26489 58.0535 4.26489 58.0535L6.48419 56.783L20.5674 65.3196C20.5851 65.3284 20.6581 65.3738 20.6581 65.3738Z" fill="#1D1D1B"/>
<path d="M52.4691 84.3985C52.2183 85.5386 52.2183 86.7195 52.4691 87.8596C52.6924 88.4508 53.0548 88.9794 53.5256 89.401C53.9963 89.8225 54.5617 90.1244 55.1738 90.2813C57.0017 91.6701 57.7282 94.0354 60.0382 94.7199C62.6843 95.505 64.2844 94.4766 64.0743 92.9009C63.7116 90.1862 60.6375 88.9798 59.1768 85.8427L57.8487 82.7056H53.1171L52.4691 84.3985Z" fill="#6D6E71"/>
<path d="M49.0291 45.9672L52.2601 63.1842C51.3014 67.0898 52.8849 76.9014 51.684 84.9282C51.9107 88.3849 59.2818 88.5298 59.3902 85.8648C59.2381 78.4745 59.6473 71.0832 60.6143 63.7548C62.775 57.2019 62.2022 42.7472 58.0213 30.6267L49.5233 35.02L49.0291 45.9672Z" fill="#EAEAEA"/>
<path d="M40.9845 89.8324C40.2893 91.3595 40.1295 93.0764 40.5312 94.7056C42.4243 96.7977 45.0184 100.989 50.199 100.689C52.2923 100.3 52.8783 99.2802 52.0866 97.6879C51.255 96.0137 48.6587 94.417 47.5241 91.3927L46.2138 88.7366L40.9845 89.8324Z" fill="#6D6E71"/>
<path d="M58.9782 33.5858C58.728 36.0315 58.1277 38.4286 57.1957 40.7037C55.8212 43.9712 53.8043 46.4228 51.4512 46.7445C51.1791 56.6225 51.9598 66.7735 49.2363 70.4126C47.6771 78.3599 46.871 86.0351 48.0476 92.1257C46.798 94.1803 42.0808 93.9326 40.6698 91.5806C40.5183 91.3131 40.4059 91.0252 40.3359 90.7258C39.9157 80.1424 38.3178 71.8856 41.9072 66.0924L39.5806 47.3019C38.3311 40.6539 39.4324 37.2127 42.8858 34.006C43.2949 33.6222 43.7516 33.2385 44.2348 32.8559L58.5691 32.2732L58.9782 33.5858Z" fill="#F7F7F7"/>
<path opacity="0.15" d="M44.8541 39.9484C42.7752 47.6225 43.7516 59.3582 45.794 67.9368C41.4748 73.7676 41.3266 81.1575 41.4748 91.8405L40.6698 91.5806C40.5183 91.3131 40.4059 91.0252 40.3359 90.7258C39.9157 80.1424 38.3178 71.8856 41.9072 66.0924L39.5806 47.3019C38.3311 40.6539 39.4324 37.2127 42.8858 34.006C43.2949 33.6222 43.7516 33.2385 44.2348 32.8559L58.5691 32.2732L58.9782 33.5858C58.728 36.0315 58.1277 38.4286 57.1957 40.7037C54.2709 42.9539 49.2772 43.6815 44.8541 39.9484Z" fill="#1D1D1B"/>
<path d="M62.0264 18.46L63.591 21.6535L68.3735 31.4175C70.6198 36.382 73.3837 41.0955 76.6193 45.4797L77.2286 44.7388L78.1486 43.611C76.9693 38.4188 75.2419 33.3666 72.9957 28.5392L68.744 16.8179C68.0507 12.1957 65.9077 11.0734 63.6209 10.2971L62.0264 18.46Z" fill="#FCAF75"/>
<path opacity="0.15" d="M63.5911 21.6534L68.3736 31.4174C70.6198 36.3819 73.3837 41.0954 76.6194 45.4797L77.2287 44.7388C73.5702 39.5798 70.7098 33.899 68.744 27.8878L66.9526 16.5967L63.5911 21.6534Z" fill="#1D1D1B"/>
<path d="M61.2715 47.3672V57.4431L64.4583 59.2864L66.6953 60.5757L70.6596 62.8647V52.791L69.6478 52.2094L69.1645 51.933L66.7672 50.5352C66.7573 50.5352 64.5479 49.2636 64.5479 49.2636L61.2814 47.3672H61.2715Z" fill="#E5E5E5"/>
<path d="M85.1162 44.437V54.514L70.657 62.8626V52.7868L85.1162 44.437Z" fill="#C4C4C4"/>
<path d="M61.2358 47.3949C61.2723 47.4126 64.5289 49.2736 64.5289 49.2736L66.7482 50.5453L69.1643 51.9308L70.6593 52.7823L80.8247 46.9205L85.1107 44.4414L80.8513 41.9976L78.632 40.7282L75.6972 39.0452L61.2812 47.3673C61.2673 47.3778 61.2525 47.387 61.2369 47.3949H61.2358Z" fill="#F4F4F4"/>
<path opacity="0.3" d="M64.458 49.319V59.2865L66.695 60.5758V50.5796L66.7481 50.5442C66.7669 50.5353 80.8512 41.9987 80.8512 41.9987L78.6319 40.7271L64.5476 49.2637C64.5288 49.2736 64.458 49.319 64.458 49.319Z" fill="#1D1D1B"/>
<path d="M59.8582 36.4266C58.8187 37.4511 57.6007 38.277 56.2644 38.8637C55.097 39.4883 53.8327 39.9118 52.5246 40.1166C48.2619 40.8022 44.0289 38.9533 42.4045 34.3931C45.012 31.0978 44.9976 27.849 43.716 22.5723L50.02 24.7949L60.1999 28.3865C59.8126 29.2006 59.5177 30.0555 59.3208 30.9353C58.978 33.2928 59.4535 34.4152 59.8582 36.4266Z" fill="#ED5700"/>
<path opacity="0.2" d="M59.8582 36.4266C58.8187 37.4511 57.6007 38.277 56.2644 38.8637C55.097 39.4883 53.8327 39.9118 52.5246 40.1166C48.2619 40.8022 44.0289 38.9533 42.4045 34.3931C45.012 31.0978 44.9976 27.849 43.716 22.5723L50.02 24.7949L52.0171 30.3979L59.3208 30.9353C59.154 32.7832 59.3363 34.646 59.8582 36.4266Z" fill="#1D1D1B"/>
<path d="M55.1221 3.34521C47.658 5.7713 47.8073 11.2947 48.703 17.4572L55.7568 14.9515L55.1221 3.34521Z" fill="#1D1D1B"/>
<path d="M63.6191 10.2991C65.2767 10.6573 66.9531 13.5324 66.9531 16.5932C64.5646 23.0122 67.4009 25.6241 66.3559 29.2566C65.5797 31.9547 61.8399 33.0516 58.7426 31.0734C58.7006 31.0457 59.1153 35.5894 55.6 36.516C48.2521 38.4533 43.7151 23.0874 43.7151 23.0874C43.7151 19.4549 46.338 16.853 51.0796 15.274L58.0372 10.6651L63.6191 10.2991Z" fill="#ED5700"/>
<path d="M57.1127 26.9303C57.2514 27.476 57.2078 28.0522 56.9886 28.5708C56.7694 29.0895 56.3866 29.5223 55.8985 29.8031C55.6886 29.9335 55.4508 30.0123 55.2046 30.0331C54.9584 30.0538 54.7108 30.0159 54.482 29.9225C54.2533 29.8291 54.05 29.6827 53.8887 29.4955C53.7274 29.3083 53.6128 29.0856 53.5543 28.8455C53.4156 28.2996 53.4594 27.7234 53.6788 27.2047C53.8982 26.686 54.2812 26.2534 54.7695 25.9727C54.9794 25.8425 55.2171 25.7639 55.4631 25.7433C55.7092 25.7226 55.9567 25.7606 56.1853 25.854C56.4139 25.9474 56.6171 26.0937 56.7783 26.2807C56.9395 26.4678 57.0541 26.6904 57.1127 26.9303Z" fill="white"/>
<path d="M55.3334 9.72656C55.0089 11.1237 54.4155 12.4442 53.5862 13.6145C53.3684 14.6594 56.1517 19.6023 58.518 19.4298C60.1933 19.1003 60.922 17.6771 61.1675 15.6978L55.3334 9.72656Z" fill="#FCAF75"/>
<path opacity="0.15" d="M60.1986 15.6723C60.0825 17.4925 59.7452 19.9506 57.37 20.1508C55.5632 20.3045 54.3446 17.4571 51.0781 15.2743L53.5849 9.72656L60.1986 15.6723Z" fill="#1D1D1B"/>
<path d="M60.0217 0.471259C65.544 1.23535 66.9074 5.29467 66.3556 9.68904C65.6612 14.0392 64.6914 17.5434 62.5484 17.4516C59.4965 17.6197 56.8725 13.9474 54.2639 10.1369C52.2481 3.86711 54.8832 -0.239758 60.0228 0.472364L60.0217 0.471259Z" fill="#FCAF75"/>
<path d="M66.3947 6.67012C65.0441 8.00781 63.4292 9.04881 61.6531 9.72649C59.8376 10.3508 58.1765 11.3559 56.7811 12.6745L54.5396 12.3207C52.2861 9.72539 52.1147 2.43166 55.9274 0.742031C61.4784 -1.71833 66.4688 2.37416 66.3947 6.67012Z" fill="#3C3C3B"/>
<path d="M56.7001 12.1094C56.3595 10.7581 55.4185 9.8724 54.6157 10.6498C54.243 11.0125 54.2673 11.6781 54.6157 12.5252C54.6995 12.7942 54.8567 13.0345 55.0696 13.2191C55.2825 13.4037 55.5427 13.5253 55.821 13.5701C56.5806 13.6862 56.9621 13.1521 56.7001 12.1105V12.1094Z" fill="#FCAF75"/>
<path d="M45.1558 18.9397C48.053 19.1354 49.6033 22.2847 50.4569 26.9677L52.5469 39.2838C55.8576 42.1323 59.2003 47.0685 62.5486 52.426L61.131 54.5845C55.7304 51.2616 51.6667 46.4139 48.2177 41.0752C44.8352 32.4169 41.3752 23.7189 45.1558 18.9397Z" fill="#FCAF75"/>
<path d="M61.7598 51.8834C62.5363 51.5049 63.3547 51.2191 64.198 51.0319C65.0772 51.0941 65.9602 51.0726 66.8353 50.9678C67.7089 50.8539 67.9787 51.5981 67.4092 51.8911C66.6179 51.8836 65.8518 52.1692 65.2585 52.6928C65.7104 53.3208 66.2862 53.8495 66.9503 54.2464L69.989 55.569C71.0638 56.0013 70.9024 56.8682 69.989 56.6526C71.6875 57.2896 71.003 58.1565 69.9138 57.7772C70.6547 58.2129 70.4844 58.9504 69.3443 58.59L68.4199 58.3212C68.839 58.59 68.5504 59.0566 67.7211 58.8542C66.5796 58.6165 65.4592 58.2874 64.3705 57.8701C63.2364 57.0909 62.2141 56.1605 61.3319 55.1045L59.6975 53.719L60.2991 51.4853L61.7598 51.8834Z" fill="#FCAF75"/>
<path d="M110.218 50.679L105.274 53.0553L105.163 53.1084L103.989 53.6724C104.003 53.0956 103.925 52.5202 103.756 51.9684C103.363 50.8857 102.869 49.8424 102.28 48.8523C102.071 48.4578 101.887 48.0508 101.727 47.6337C101.542 47.1442 101.418 46.6334 101.359 46.1133L106.816 44.2854C107.042 45.4209 107.459 46.51 108.048 47.5065C108.689 48.6186 109.414 49.6785 110.218 50.679Z" fill="#FCAF75"/>
<path d="M109.59 44.6359C109.435 45.7461 108.888 46.7643 108.048 47.5065C106.607 48.5225 104.857 49.0032 103.099 48.8655C102.792 48.8655 102.512 48.8566 102.28 48.8522C102.109 48.8478 101.964 48.8478 101.846 48.8522C101.187 48.8842 100.533 48.7359 99.9524 48.4232C98.673 47.7298 97.2488 45.9816 96.4416 41.7299C95.1843 35.0985 99.8385 33.8412 99.8385 33.8412C108.604 32.3075 110.466 39.7019 109.59 44.6359Z" fill="#FCAF75"/>
<path opacity="0.2" d="M105.321 53.2345L105.164 53.1085L103.757 51.9684C103.363 50.8858 102.869 49.8425 102.28 48.8523C102.109 48.8479 101.964 48.8479 101.846 48.8523C101.187 48.8844 100.533 48.736 99.9526 48.4233C100.62 48.3822 101.25 48.1019 101.727 47.6338C102.204 47.1075 102.514 46.4518 102.618 45.7495C102.432 46.813 102.601 47.908 103.1 48.8656C103.953 50.1918 104.68 51.5944 105.274 53.0554C105.287 53.1162 105.305 53.1737 105.321 53.2345Z" fill="#1D1D1B"/>
<path d="M123.107 112.841V125.331C123.107 128.251 118.361 128.908 118.067 126.134L117.856 121.878L117.423 113.09L117.41 112.841H123.107Z" fill="#FCAF75"/>
<path d="M117.887 121.909L114.87 122.921C111.912 122.646 110.405 123.989 110.707 125.331C111.31 127.468 114.304 128.454 114.304 128.454L120.375 130.181C121.746 130.344 123.329 129.795 123.773 128.92C124.449 127.431 123.753 125.175 123.106 122.948C122.88 124.188 122.344 124.756 120.869 125.002C119.2 125.057 117.638 124.892 117.887 121.909Z" fill="#6D6E71"/>
<path d="M112.071 116.724L111.717 122.4L111.128 131.832C111.128 134.755 106.378 135.412 106.088 132.633L105.606 120.941L105.378 115.374L112.071 116.724Z" fill="#FCAF75"/>
<path d="M105.907 128.41L102.892 129.421C99.9328 129.147 98.4267 130.49 98.7275 131.832C99.3301 133.968 102.326 134.955 102.326 134.955L108.396 136.682C109.766 136.846 111.349 136.296 111.793 135.42C112.47 133.932 111.773 131.676 111.128 129.449C110.9 130.69 110.365 131.257 108.891 131.503C107.22 131.558 105.657 131.393 105.907 128.41Z" fill="#6D6E71"/>
<path opacity="0.2" d="M105.378 115.374L112.071 116.723L111.717 122.4C109.597 122.372 107.51 121.874 105.606 120.941L105.378 115.374Z" fill="#1D1D1B"/>
<path opacity="0.2" d="M123.106 112.841V120.003C121.467 120.903 119.695 121.536 117.856 121.878L117.423 113.09L119.833 112.841H123.106Z" fill="#1D1D1B"/>
<path d="M104.918 66.4972C104.917 67.2493 104.686 67.983 104.256 68.6004C103.745 69.3295 103.007 69.8691 102.157 70.1352C101.739 70.2695 101.303 70.3374 100.864 70.3365C100.181 70.3424 99.5087 70.1784 98.9058 69.8593C98.3029 69.5402 97.7889 69.076 97.4103 68.5086C97.0189 67.9107 96.8102 67.2118 96.8098 66.4972C96.8147 65.8745 96.9733 65.2626 97.2716 64.7159C97.5698 64.1692 97.9984 63.7046 98.5193 63.3634C98.6482 63.2752 98.7831 63.1962 98.923 63.1268C99.4339 62.8605 99.9954 62.7052 100.571 62.6712C100.667 62.6624 100.763 62.6579 100.864 62.6579C101.91 62.6297 102.925 63.0182 103.686 63.7382C104.446 64.4581 104.89 65.4505 104.918 66.4972Z" fill="white"/>
<path d="M103.549 53.1251C103.549 53.1251 102.809 50.0576 101.824 49.7834C100.825 49.4188 99.8585 48.9728 98.9331 48.4498C98.4134 48.0849 97.9058 48.4498 98.2343 48.8656L98.8137 49.5092L95.6888 48.2917C94.7853 48.0319 94.3862 48.5792 95.2177 49.0359C95.2177 49.0359 97.96 50.6304 97.7942 50.521C97.6283 50.4115 94.3054 49.006 94.3054 49.006C93.6331 48.6467 93.2494 49.1808 93.7326 49.549L97.1384 51.4819L93.9339 50.3451C93.3633 50.0554 92.9066 50.5508 93.4695 50.9478L96.4816 52.5777L94.4768 51.9507C93.8112 51.6853 93.6055 52.2493 94.3309 52.5777L96.6464 53.6724C97.41 54.2933 98.3063 54.7299 99.2659 54.9486C100.225 55.1672 101.223 55.1618 102.18 54.933C105.247 54.0572 103.549 53.1251 103.549 53.1251Z" fill="#FCAF75"/>
<path d="M112.694 47.8339L110.084 59.0288L100.733 54.5725L99.1995 55.7413C103.22 60.3657 107.276 64.7822 112.093 64.7269C114.651 64.2138 116.66 61.989 118.103 56.5983C119.381 52.2858 114.53 43.999 112.694 47.8339Z" fill="white"/>
<path d="M125.443 112.84C124.807 118.92 115.871 120.949 108.727 118.916C106.112 118.258 103.747 116.848 101.925 114.861C100.996 105.929 100.904 104.947 101.925 95.6731L105.3 76.9457L105.431 76.2136L110.962 73.6283L119.745 69.5259C121.991 71.5893 123.658 74.2044 124.58 77.1114C125.503 80.0184 125.649 83.1162 125.004 86.0971C123.383 94.6525 123.544 95.2353 123.544 100.494C124.049 107.901 125.137 105.459 125.443 112.84Z" fill="#ED5700"/>
<path d="M121.091 70.9061C118.483 70.3975 115.108 71.5066 111.265 73.5976C109.415 74.6061 107.461 75.8423 105.431 77.2312L105.299 76.9459L102.157 70.1343L98.9231 63.127L98.6865 62.605L96.2051 57.232C97.9588 53.7267 107.741 47.3707 113.977 46.8267C120.798 52.7448 118.097 59.2567 121.091 70.9061Z" fill="white"/>
<path d="M96.4441 36.252C96.4441 36.252 94.1529 42.3338 99.4894 44.7444C100.91 45.3857 103.279 47.4027 105.489 47.6471C111.541 48.3172 109.417 39.3769 109.417 39.3769C109.201 34.9649 106.329 33.4577 102.36 33.1514C101.169 32.9344 99.9404 33.1218 98.8684 33.6836C97.7965 34.2454 96.9432 35.1494 96.4441 36.252Z" fill="#9D9D9C"/>
<path d="M99.1275 45.2916C98.6597 44.7974 98.642 43.6374 99.5698 43.9183C100.346 44.1549 100.496 45.1855 100.661 45.839C100.803 46.3985 100.844 47.7741 99.8794 47.0056C99.4205 46.6396 99.5068 45.6919 99.1275 45.2916Z" fill="#FCAF75"/>
<path d="M112.103 44.2866C112.103 45.3907 111.664 46.4497 110.884 47.2304C110.103 48.0112 109.044 48.4498 107.94 48.4498C106.835 48.4498 105.777 48.0112 104.996 47.2304C104.215 46.4497 103.776 45.3907 103.776 44.2866C103.776 43.1824 104.215 42.1234 104.996 41.3427C105.777 40.5619 106.835 40.1233 107.94 40.1233C109.044 40.1233 110.103 40.5619 110.884 41.3427C111.664 42.1234 112.103 43.1824 112.103 44.2866Z" fill="#B2B2B2"/>
<path opacity="0.2" d="M111.26 73.6017C104.423 82.7576 104.015 105.157 108.727 118.916C106.112 118.258 103.747 116.848 101.925 114.861C100.996 105.929 100.903 104.947 101.925 95.6731L105.3 76.9456L102.157 70.134C101.739 70.2687 101.303 70.3369 100.863 70.3364C100.181 70.3423 99.5086 70.1783 98.9057 69.8592C98.3028 69.5401 97.7888 69.0759 97.4102 68.5085L98.5193 63.3633L98.6851 62.6048L99.1982 60.2207C99.6549 61.0456 100.115 61.865 100.569 62.6711C101.797 64.823 103.024 66.8698 104.256 68.6014C106.461 71.691 108.682 73.7687 110.961 73.6283C111.063 73.6245 111.164 73.6142 111.264 73.5973L111.26 73.6017Z" fill="#1D1D1B"/>
<path d="M101.193 63.4597C100.162 67.3034 99.0621 70.8275 97.5859 72.7206C97.1172 73.4139 96.4133 73.914 95.6043 74.1283C90.7875 74.1803 86.7382 69.7715 82.7109 65.1471C82.7109 65.1427 83.0913 64.8541 83.0913 64.8541L84.2093 63.9993C84.2446 63.9728 93.5973 68.4302 93.5973 68.4302L96.2048 57.232C98.0415 53.4016 103.087 59.8881 101.193 63.4597Z" fill="#FCAF75"/>
<path d="M84.7923 64.5211L83.6357 65.5495L83.4775 65.691L82.7112 65.147C82.7112 65.1426 82.3463 64.8838 82.3463 64.8838C81.4208 64.7463 80.529 64.4373 79.7168 63.9726C77.7928 62.6367 76.1007 60.9946 74.7076 59.1116C74.6556 59.042 74.6114 58.9679 74.5671 58.8971C74.2907 58.4415 74.712 58.0567 75.151 58.3851C74.7695 57.7924 75.6066 57.6 75.9571 57.9815L76.5045 58.4194C76.1363 57.9815 76.9601 57.7847 77.5262 58.2403L78.6209 59.1161C78.3666 58.7312 79.008 58.6384 79.6427 59.0774L82.7112 61.0899C83.0717 61.3983 83.3553 61.7866 83.5394 62.2239C83.7235 62.6612 83.803 63.1354 83.7717 63.6088L84.6928 64.1861L84.7923 64.5211Z" fill="#FCAF75"/>
<path opacity="0.15" d="M97.585 72.7204C97.1169 73.4133 96.4138 73.9133 95.6057 74.1281C90.7878 74.18 86.7384 69.7713 82.7112 65.1469C82.7112 65.1425 82.3463 64.8837 82.3463 64.8837C81.4207 64.7462 80.5289 64.4372 79.7167 63.9726C77.7928 62.6366 76.1006 60.9946 74.7075 59.1116C75.7586 60.326 76.9777 61.3842 78.3278 62.2542C78.2925 61.5885 76.8417 60.3003 76.9788 59.7341C77.2364 60.3434 78.674 61.3165 79.0599 62.513C79.678 63.8067 81.1896 64.0732 82.7112 64.3364C82.8328 64.5122 82.9611 64.6825 83.0915 64.8539C83.2674 65.0905 83.4465 65.3227 83.6356 65.5505C86.1015 68.587 91.6956 74.7838 97.585 72.7204Z" fill="#1D1D1B"/>
<path opacity="0.15" d="M78.5391 60.2197C78.5391 60.2197 81.1963 61.2061 82.1273 62.6856C83.0584 64.1651 82.2644 61.4527 82.2644 61.4527L78.5391 60.2197Z" fill="#1D1D1B"/>
<path d="M101.691 64.0125C103.33 58.9049 99.4749 51.6631 96.2073 57.234L94.2081 64.8496C93.7271 66.9782 98.1248 69.5336 100.312 68.6866C100.797 67.2414 101.691 64.0125 101.691 64.0125Z" fill="white"/>
</svg>
