<svg width="112" height="143" viewBox="0 0 112 143" fill="none" xmlns="http://www.w3.org/2000/svg">
<path d="M41.3745 97.3515V135.956L101.933 100.994V62.3926L41.3745 97.3515Z" fill="#D8D8D8"/>
<path d="M7.31079 77.6987V116.291L41.3745 135.956V97.3515L7.31079 77.6987Z" fill="#CCCCCC"/>
<path d="M41.3596 58.619V97.3756L101.918 62.4132V23.5203L41.3596 58.619Z" fill="#D8D8D8"/>
<path d="M24.6726 45.6998L7.2981 39.6326V77.7108L41.36 97.3758V58.8535L24.6726 45.6998Z" fill="#CCCCCC"/>
<path d="M49.6582 134.079L64.5901 142.846V114.463L49.6582 105.828V134.079Z" fill="#7A2E11"/>
<path d="M64.5898 114.463V142.846L109.209 117.088L109.207 88.7031L64.5898 114.463Z" fill="#7A2E11"/>
<path d="M7.31079 119.013L41.3692 138.837L41.3745 135.956L7.31079 116.291V119.013Z" fill="#7A2E11"/>
<path d="M41.3744 138.837L49.6586 134.067V131.158L41.3691 135.945L41.3744 138.837Z" fill="#7A2E11"/>
<path d="M31.9026 60.6493L16.5737 51.781V69.9004L31.8886 78.7389L31.9026 60.6493Z" fill="#D8D8D8"/>
<path d="M16.0767 51.5938L16.0941 70.2779L16.0767 70.2884L16.0941 70.3006V70.3111L16.1029 70.3006L32.3479 79.6532V78.3366L31.8881 78.0743L17.0436 69.5156V51.4801L16.0767 50.9451V51.5938Z" fill="#6D6E71"/>
<path d="M13.3072 72.8972L13.3037 72.0107L29.9998 81.6658V82.5313L13.3072 72.8972Z" fill="#6D6E71"/>
<path d="M32.3408 81.1409L32.3373 80.3279L29.9961 81.6655V82.531L32.3408 81.1409Z" fill="#808285"/>
<path d="M13.3164 72.0021L15.6244 70.689L32.338 80.3283L30.0073 81.6589L13.3164 72.0021Z" fill="#D1D3D4"/>
<path d="M15.6259 70.6909L32.3378 80.3284L32.3483 60.2735L31.9129 60.0147L31.8884 78.0747V78.7391L16.5736 69.9006V51.136L16.1662 50.8982L15.6067 51.2269L15.6259 70.6909Z" fill="#686868"/>
<path d="M15.6067 51.2269L16.5736 51.7812L31.9024 60.6494L32.3483 60.2735L32.3535 60.2647L32.3483 60.2613L16.5736 51.136L16.1662 50.8982L15.6067 51.2269Z" fill="#686868"/>
<g style="mix-blend-mode:screen">
<path d="M20.6946 54.1694L31.8988 73.0931L31.9023 60.6493L20.6946 54.1694Z" fill="#7A2E11"/>
</g>
<g style="mix-blend-mode:screen">
<path d="M17.0444 58.5996V69.5153L27.7521 75.6944L17.0444 58.5996Z" fill="#7A2E11"/>
</g>
<path d="M31.9026 95.778L16.5703 86.9062V105.027L31.8852 113.868L31.9026 95.778Z" fill="#D8D8D8"/>
<path d="M16.0754 86.721L16.0929 105.405L16.0754 105.416L16.0929 105.428V105.438L16.0999 105.428L32.3449 114.779V113.467L31.8851 113.203L17.0423 104.641V86.6073L16.0754 86.0706V86.721Z" fill="#6D6E71"/>
<path d="M13.3037 108.024V107.135L29.9998 116.792V117.658L13.3037 108.024Z" fill="#6D6E71"/>
<path d="M32.3393 116.266L32.3341 115.457L29.9946 116.793V117.658L32.3393 116.266Z" fill="#808285"/>
<path d="M13.3149 107.127L15.6229 105.814L32.3348 115.457L30.0041 116.784L13.3149 107.127Z" fill="#D1D3D4"/>
<path d="M15.6255 105.817L32.3338 115.456L32.3443 95.3998L31.9107 95.1375L31.8845 113.203V113.867L16.5696 105.027V86.2605L16.1658 86.0227L15.6045 86.3514L15.6255 105.817Z" fill="#686868"/>
<path d="M15.6045 86.3514L16.5696 86.9057L31.902 95.7774L32.3443 95.3998L32.3513 95.391L32.3443 95.3875L16.5696 86.2605L16.1658 86.0227L15.6045 86.3514Z" fill="#686868"/>
<g style="mix-blend-mode:screen">
<path d="M20.6931 89.2944L31.8938 108.218L31.9025 95.7778L20.6931 89.2944Z" fill="#7A2E11"/>
</g>
<g style="mix-blend-mode:screen">
<path d="M17.0425 93.7268V104.641L27.7501 110.822L17.0425 93.7268Z" fill="#7A2E11"/>
</g>
<path d="M89.6002 54.8667L56.7342 73.8446L56.729 56.2375L89.6212 37.2351L89.6002 54.8667Z" fill="#D8D8D8"/>
<path d="M89.6892 36.821L89.8151 36.8962L73.1802 46.5041L73.0491 46.4236L89.6892 36.821Z" fill="#7A2E11"/>
<path d="M81.585 59.5563L81.4521 59.4793L89.4969 54.8372L89.6262 54.9158L81.585 59.5563Z" fill="#7A2E11"/>
<path d="M89.6258 54.9161L89.4965 54.8374L89.4912 37.1621L89.6206 37.2355L89.6258 54.9161Z" fill="#1D2021"/>
<path d="M73.3769 64.2934L73.2476 64.2147L81.294 59.5725L81.4199 59.6529L73.3769 64.2934Z" fill="#7A2E11"/>
<path d="M73.1852 64.6307L73.0611 64.5537L73.0488 46.4238L73.18 46.5043L73.1852 64.6307Z" fill="#1D2021"/>
<path d="M81.42 59.6527L81.2942 59.5723L81.2854 41.897L81.4165 41.9704L81.42 59.6527Z" fill="#1D2021"/>
<path d="M73.1802 46.5043L89.8151 36.8965L89.8239 55.0229L73.1854 64.6307L73.1802 46.5043ZM81.4207 59.6528L81.4172 41.9705L73.3778 46.618V64.2933L81.4207 59.6528ZM89.6263 54.9162L89.621 37.2357L81.5781 41.8796L81.5851 59.5567L89.6263 54.9162Z" fill="white"/>
<path d="M73.0462 46.4238L73.1756 46.5043L56.5424 56.1069L56.4148 56.0299L73.0462 46.4238Z" fill="#7A2E11"/>
<path d="M64.9443 69.1573L64.8149 69.0856L72.8579 64.4417L72.9855 64.5133L64.9443 69.1573Z" fill="#7A2E11"/>
<path d="M72.9848 64.5136L72.8572 64.4419V46.7649L72.9831 46.8401L72.9848 64.5136Z" fill="#1D2021"/>
<path d="M56.7436 73.8939L56.6072 73.8187L64.6554 69.1748L64.7848 69.2552L56.7436 73.8939Z" fill="#7A2E11"/>
<path d="M56.5444 74.2296L56.4168 74.1579L56.415 56.0298L56.5427 56.1067L56.5444 74.2296Z" fill="#1D2021"/>
<path d="M64.7845 69.2552L64.6551 69.1748L64.6516 51.5012L64.7775 51.5729L64.7845 69.2552Z" fill="#1D2021"/>
<path d="M56.543 56.1066L73.1814 46.5005L73.1831 64.6269L56.5447 74.2295L56.543 56.1066ZM64.7852 69.2551L64.7783 51.5728L56.737 56.2185L56.744 73.8955L64.7852 69.2551ZM72.9856 64.5132L72.9838 46.8397L64.9444 51.4819V69.1589L72.9856 64.5132Z" fill="white"/>
<path d="M49.6582 78.4626V131.172L64.5901 139.797V89.8172L49.6582 78.4626Z" fill="#CCCCCC"/>
<path d="M64.5898 89.6495V139.797L109.209 114.039V63.884L64.5898 89.6495Z" fill="#E0E0E0"/>
<path d="M112 66.164L111.998 65.4944L66.4451 91.7949L66.3018 92.552L112 66.164Z" fill="#7A2E11"/>
<path d="M111.999 65.4941L95.0629 51.9084L49.6709 78.3296L66.4457 91.805L111.999 65.4941Z" fill="#C74819"/>
<path d="M49.6582 79.1971L65.7354 92.0956L66.3019 92.5519L66.4452 91.7948L49.6617 78.3281L49.6582 79.1971Z" fill="#7A2E11"/>
<path d="M100.577 92.8074L71.656 109.42V138.736L103.216 120.55L100.577 119.02V92.8074Z" fill="#6D6E71"/>
<path d="M103.21 91.1985L100.577 94.5503V119.02L103.215 120.55L103.21 91.1985Z" fill="#808285"/>
<path d="M100.577 100.107L71.6556 116.67L71.6538 135.72L100.577 119.02V100.107Z" fill="#686868"/>
<path d="M103.214 91.2859L71.656 109.507V124.65L103.214 106.428V91.2859Z" fill="#808285"/>
<path d="M103.215 101.555L71.6538 119.749V123.43L103.215 105.232V101.555Z" fill="#BCBEC0"/>
<path d="M103.215 96.5979L71.6538 114.798V118.475L103.215 100.273V96.5979Z" fill="#BCBEC0"/>
<path d="M103.215 91.6426L71.6538 109.837V113.518L103.215 95.3214V91.6426Z" fill="#BCBEC0"/>
<path d="M107.538 27.4216V26.5159L45.6494 62.2459L45.4553 63.2757L107.538 27.4216Z" fill="#7A2E11"/>
<path d="M84.5262 8.0552L61.6807 0L0 35.9101L22.8682 43.96L84.5262 8.0552Z" fill="#ED5700"/>
<path d="M107.538 26.5155L84.5269 8.05518L22.8601 43.953L45.6497 62.2595L107.538 26.5155Z" fill="#C74819"/>
<path d="M44.6834 62.6546L45.4545 63.2753L45.6485 62.2454L22.8468 43.9494L0.0100098 35.896L0.202339 37.1479L0.969919 37.4189L22.8415 45.1314L44.6834 62.6546Z" fill="#7A2E11"/>
<path d="M88.4165 24.0676L79.6374 29.1364L79.627 14.2849L88.4165 9.20557V24.0676Z" fill="#C6C6C6"/>
<path d="M79.6382 29.1363L73.3472 24.0902V10.6567L79.6277 14.2848L79.6382 29.1363Z" fill="#D9DCDD"/>
<path d="M88.4172 9.20572L79.6277 14.285L73.3472 10.6569L82.128 5.58813L88.4172 9.20572Z" fill="#808285"/>
<path d="M76.7313 12.3686L84.8914 7.65996L81.8578 5.90625L73.6995 10.6166L76.7313 12.3686Z" fill="#A7A9AC"/>
<path d="M76.7313 11.7478L84.8914 7.03395L81.8578 5.28198L73.6995 9.99411L76.7313 11.7478Z" fill="#C6C6C6"/>
<path d="M76.7313 11.7481V12.3688L73.6995 10.6168V9.99438L76.7313 11.7481Z" fill="#BCBEC0"/>
<path d="M84.8913 7.03394V7.65989L76.7312 12.3685V11.7478L84.8913 7.03394Z" fill="#6D6E71"/>
<path d="M75.8201 9.1881L80.7455 6.33984L80.9134 6.43951L75.9879 9.28252L75.8201 9.1881Z" fill="#686868"/>
<path d="M76.2251 9.41894L81.1505 6.57593L81.3201 6.67384L76.3947 9.51686L76.2251 9.41894Z" fill="#686868"/>
<path d="M76.6318 9.65332L81.5573 6.8103L81.7251 6.90647L76.7979 9.75123L76.6318 9.65332Z" fill="#686868"/>
<path d="M77.0378 9.88602L81.9598 7.04126L82.1276 7.13917L77.2057 9.98743L77.0378 9.88602Z" fill="#686868"/>
<path d="M77.436 10.1221L82.365 7.27734L82.5293 7.37526L77.6074 10.2218L77.436 10.1221Z" fill="#686868"/>
<path d="M77.8457 10.3542L82.7729 7.51123L82.9407 7.60565L78.0136 10.4504L77.8457 10.3542Z" fill="#686868"/>
<path d="M79.6691 14.0701L87.8257 9.35792L84.7922 7.60596L76.6338 12.3198L79.6691 14.0701Z" fill="#A7A9AC"/>
<path d="M79.6691 13.4422L87.8257 8.73362L84.7922 6.9834L76.6338 11.6938L79.6691 13.4422Z" fill="#C6C6C6"/>
<path d="M79.6691 13.4423V14.07L76.6338 12.3198V11.6938L79.6691 13.4423Z" fill="#BCBEC0"/>
<path d="M87.8256 8.73364V9.35785L79.6689 14.07V13.4423L87.8256 8.73364Z" fill="#6D6E71"/>
<path d="M78.7581 10.8863L83.6817 8.0415L83.8513 8.14117L78.9277 10.9842L78.7581 10.8863Z" fill="#686868"/>
<path d="M79.1633 11.1182L84.0888 8.27344L84.2531 8.37135L79.3312 11.2179L79.1633 11.1182Z" fill="#686868"/>
<path d="M79.5623 11.3525L84.4912 8.50952L84.659 8.60394L79.7354 11.4522L79.5623 11.3525Z" fill="#686868"/>
<path d="M79.9678 11.5873L84.8932 8.73901L85.0646 8.84217L80.1391 11.6834L79.9678 11.5873Z" fill="#686868"/>
<path d="M80.376 11.8216L85.2997 8.97339L85.4693 9.0713L80.5438 11.9143L80.376 11.8216Z" fill="#686868"/>
<path d="M80.7815 12.054L85.7087 9.20752L85.8748 9.30543L80.9493 12.1502L80.7815 12.054Z" fill="#686868"/>
<g style="mix-blend-mode:overlay" opacity="0.8">
<path d="M7.30908 77.6987V116.291L41.3727 135.956V97.3515L7.30908 77.6987Z" fill="#CCCCCC"/>
<path d="M24.6724 45.6998L7.29785 39.6326V77.7108L41.3598 97.3758V58.8535L24.6724 45.6998Z" fill="#CCCCCC"/>
<path d="M49.658 134.079L64.5899 142.846V114.463L49.658 105.828V134.079Z" fill="#7A2E11"/>
<path d="M7.30908 119.013L41.3675 138.837L41.3727 135.956L7.30908 116.291V119.013Z" fill="#7A2E11"/>
<path d="M41.3734 138.837L49.6577 134.067V131.158L41.3682 135.945L41.3734 138.837Z" fill="#7A2E11"/>
<path d="M31.9023 60.6493L16.5735 51.781V69.9004L31.8883 78.7389L31.9023 60.6493Z" fill="#D8D8D8"/>
<path d="M16.0764 51.5938L16.0939 70.2779L16.0764 70.2884L16.0939 70.3006V70.3111L16.1026 70.3006L32.3477 79.6532V78.3366L31.8878 78.0743L17.0433 69.5156V51.4801L16.0764 50.9451V51.5938Z" fill="#6D6E71"/>
<path d="M13.307 72.8972L13.3035 72.0107L29.9996 81.6658V82.5313L13.307 72.8972Z" fill="#6D6E71"/>
<path d="M32.3406 81.1409L32.3371 80.3279L29.9958 81.6655V82.531L32.3406 81.1409Z" fill="#808285"/>
<path d="M13.3154 72.0021L15.6234 70.689L32.337 80.3283L30.0063 81.6589L13.3154 72.0021Z" fill="#D1D3D4"/>
<path d="M15.6257 70.6909L32.3375 80.3284L32.348 60.2735L31.9127 60.0147L31.8882 78.0747V78.7391L16.5733 69.9006V51.136L16.166 50.8982L15.6064 51.2269L15.6257 70.6909Z" fill="#686868"/>
<path d="M15.6064 51.2269L16.5733 51.7812L31.9022 60.6494L32.348 60.2735L32.3533 60.2647L32.348 60.2613L16.5733 51.136L16.166 50.8982L15.6064 51.2269Z" fill="#686868"/>
<g style="mix-blend-mode:screen">
<path d="M20.6943 54.1694L31.8985 73.0931L31.902 60.6493L20.6943 54.1694Z" fill="#7A2E11"/>
</g>
<g style="mix-blend-mode:screen">
<path d="M17.0442 58.5996V69.5153L27.7518 75.6944L17.0442 58.5996Z" fill="#7A2E11"/>
</g>
<path d="M31.9024 95.778L16.5701 86.9062V105.027L31.8849 113.868L31.9024 95.778Z" fill="#D8D8D8"/>
<path d="M16.0752 86.721L16.0927 105.405L16.0752 105.416L16.0927 105.428V105.438L16.0997 105.428L32.3447 114.779V113.467L31.8848 113.203L17.0421 104.641V86.6073L16.0752 86.0706V86.721Z" fill="#6D6E71"/>
<path d="M13.3035 108.024V107.135L29.9996 116.792V117.658L13.3035 108.024Z" fill="#6D6E71"/>
<path d="M32.3391 116.266L32.3338 115.457L29.9944 116.793V117.658L32.3391 116.266Z" fill="#808285"/>
<path d="M13.3142 107.127L15.6222 105.814L32.3341 115.457L30.0033 116.784L13.3142 107.127Z" fill="#D1D3D4"/>
<path d="M15.6252 105.817L32.3336 115.456L32.3441 95.3998L31.9105 95.1375L31.8842 113.203V113.867L16.5694 105.027V86.2605L16.1655 86.0227L15.6042 86.3514L15.6252 105.817Z" fill="#686868"/>
<path d="M15.6042 86.3514L16.5694 86.9057L31.9017 95.7774L32.3441 95.3998L32.3511 95.391L32.3441 95.3875L16.5694 86.2605L16.1655 86.0227L15.6042 86.3514Z" fill="#686868"/>
<g style="mix-blend-mode:screen">
<path d="M20.6929 89.2944L31.8936 108.218L31.9023 95.7778L20.6929 89.2944Z" fill="#7A2E11"/>
</g>
<g style="mix-blend-mode:screen">
<path d="M17.0422 93.7268V104.641L27.7499 110.822L17.0422 93.7268Z" fill="#7A2E11"/>
</g>
<path d="M89.6 54.8667L56.734 73.8446L56.7288 56.2375L89.6209 37.2351L89.6 54.8667Z" fill="#D8D8D8"/>
<path d="M89.689 36.821L89.8149 36.8962L73.18 46.5041L73.0488 46.4236L89.689 36.821Z" fill="#7A2E11"/>
<path d="M81.5848 59.5563L81.4519 59.4793L89.4966 54.8372L89.626 54.9158L81.5848 59.5563Z" fill="#7A2E11"/>
<path d="M89.6256 54.9161L89.4962 54.8374L89.491 37.1621L89.6203 37.2355L89.6256 54.9161Z" fill="#1D2021"/>
<path d="M73.3767 64.2934L73.2473 64.2147L81.2938 59.5725L81.4197 59.6529L73.3767 64.2934Z" fill="#7A2E11"/>
<path d="M73.185 64.6307L73.0608 64.5537L73.0486 46.4238L73.1797 46.5043L73.185 64.6307Z" fill="#1D2021"/>
<path d="M81.4198 59.6527L81.2939 59.5723L81.2852 41.897L81.4163 41.9704L81.4198 59.6527Z" fill="#1D2021"/>
<path d="M73.1799 46.5043L89.8149 36.8965L89.8236 55.0229L73.1852 64.6307L73.1799 46.5043ZM81.4205 59.6528L81.417 41.9705L73.3775 46.618V64.2933L81.4205 59.6528ZM89.626 54.9162L89.6208 37.2357L81.5778 41.8796L81.5848 59.5567L89.626 54.9162Z" fill="white"/>
<path d="M73.0445 46.4238L73.1739 46.5043L56.5407 56.1069L56.4131 56.0299L73.0445 46.4238Z" fill="#7A2E11"/>
<path d="M64.9429 69.1573L64.8135 69.0856L72.8564 64.4417L72.9841 64.5133L64.9429 69.1573Z" fill="#7A2E11"/>
<path d="M72.9829 64.5136L72.8552 64.4419V46.7649L72.9811 46.8401L72.9829 64.5136Z" fill="#1D2021"/>
<path d="M56.7414 73.8939L56.605 73.8187L64.6532 69.1748L64.7826 69.2552L56.7414 73.8939Z" fill="#7A2E11"/>
<path d="M56.5422 74.2296L56.4146 74.1579L56.4128 56.0298L56.5405 56.1067L56.5422 74.2296Z" fill="#1D2021"/>
<path d="M64.783 69.2552L64.6536 69.1748L64.6501 51.5012L64.776 51.5729L64.783 69.2552Z" fill="#1D2021"/>
<path d="M56.541 56.1066L73.1794 46.5005L73.1812 64.6269L56.5428 74.2295L56.541 56.1066ZM64.7833 69.2551L64.7763 51.5728L56.7351 56.2185L56.7421 73.8955L64.7833 69.2551ZM72.9836 64.5132L72.9819 46.8397L64.9424 51.4819V69.1589L72.9836 64.5132Z" fill="white"/>
<path d="M49.658 78.4626V131.172L64.5899 139.797V89.8172L49.658 78.4626Z" fill="#CCCCCC"/>
<path d="M111.999 66.164L111.998 65.4944L66.4449 91.7949L66.3015 92.552L111.999 66.164Z" fill="#7A2E11"/>
<path d="M49.658 79.1971L65.7351 92.0956L66.3016 92.5519L66.445 91.7948L49.6615 78.3281L49.658 79.1971Z" fill="#7A2E11"/>
<path d="M100.577 92.8074L71.6558 109.42V138.736L103.216 120.55L100.577 119.02V92.8074Z" fill="#6D6E71"/>
<path d="M103.21 91.1985L100.577 94.5503V119.02L103.215 120.55L103.21 91.1985Z" fill="#808285"/>
<path d="M100.577 100.107L71.6553 116.67L71.6536 135.72L100.577 119.02V100.107Z" fill="#686868"/>
<path d="M103.214 91.2859L71.6558 109.507V124.65L103.214 106.428V91.2859Z" fill="#808285"/>
<path d="M103.215 101.555L71.6536 119.749V123.43L103.215 105.232V101.555Z" fill="#BCBEC0"/>
<path d="M103.215 96.5979L71.6536 114.798V118.475L103.215 100.273V96.5979Z" fill="#BCBEC0"/>
<path d="M103.215 91.6426L71.6536 109.837V113.518L103.215 95.3214V91.6426Z" fill="#BCBEC0"/>
<path d="M88.4163 24.0676L79.6372 29.1364L79.6267 14.2849L88.4163 9.20557V24.0676Z" fill="#C6C6C6"/>
<path d="M79.6367 29.1363L73.3457 24.0902V10.6567L79.6262 14.2848L79.6367 29.1363Z" fill="#D9DCDD"/>
<path d="M88.4158 9.20572L79.6262 14.285L73.3457 10.6569L82.1265 5.58813L88.4158 9.20572Z" fill="#808285"/>
<path d="M76.7311 12.3686L84.8912 7.65996L81.8576 5.90625L73.6992 10.6166L76.7311 12.3686Z" fill="#A7A9AC"/>
<path d="M76.7311 11.7478L84.8912 7.03395L81.8576 5.28198L73.6992 9.99411L76.7311 11.7478Z" fill="#C6C6C6"/>
<path d="M76.7311 11.7481V12.3688L73.6992 10.6168V9.99438L76.7311 11.7481Z" fill="#BCBEC0"/>
<path d="M84.8911 7.03394V7.65989L76.731 12.3685V11.7478L84.8911 7.03394Z" fill="#6D6E71"/>
<path d="M75.8198 9.1881L80.7453 6.33984L80.9131 6.43951L75.9877 9.28252L75.8198 9.1881Z" fill="#686868"/>
<path d="M76.2241 9.41894L81.1496 6.57593L81.3192 6.67384L76.3937 9.51686L76.2241 9.41894Z" fill="#686868"/>
<path d="M76.6309 9.65332L81.5563 6.8103L81.7241 6.90647L76.797 9.75123L76.6309 9.65332Z" fill="#686868"/>
<path d="M77.0376 9.88602L81.9595 7.04126L82.1274 7.13917L77.2054 9.98743L77.0376 9.88602Z" fill="#686868"/>
<path d="M77.4353 10.1221L82.3642 7.27734L82.5286 7.37526L77.6067 10.2218L77.4353 10.1221Z" fill="#686868"/>
<path d="M77.8455 10.3542L82.7726 7.51123L82.9405 7.60565L78.0133 10.4504L77.8455 10.3542Z" fill="#686868"/>
<path d="M79.6682 14.0701L87.8248 9.35792L84.7912 7.60596L76.6328 12.3198L79.6682 14.0701Z" fill="#A7A9AC"/>
<path d="M79.6682 13.4422L87.8248 8.73362L84.7912 6.9834L76.6328 11.6938L79.6682 13.4422Z" fill="#C6C6C6"/>
<path d="M79.6682 13.4423V14.07L76.6328 12.3198V11.6938L79.6682 13.4423Z" fill="#BCBEC0"/>
<path d="M87.8253 8.73364V9.35785L79.6687 14.07V13.4423L87.8253 8.73364Z" fill="#6D6E71"/>
<path d="M78.7578 10.8858L83.6815 8.04102L83.8511 8.14068L78.9274 10.9837L78.7578 10.8858Z" fill="#686868"/>
<path d="M79.1631 11.1182L84.0885 8.27344L84.2529 8.37135L79.3309 11.2179L79.1631 11.1182Z" fill="#686868"/>
<path d="M79.562 11.3525L84.4909 8.50952L84.6588 8.60394L79.7351 11.4522L79.562 11.3525Z" fill="#686868"/>
<path d="M79.9675 11.5873L84.893 8.73901L85.0643 8.84217L80.1389 11.6834L79.9675 11.5873Z" fill="#686868"/>
<path d="M80.375 11.8216L85.2987 8.97339L85.4683 9.0713L80.5429 11.9143L80.375 11.8216Z" fill="#686868"/>
<path d="M80.7805 12.054L85.7077 9.20752L85.8738 9.30543L80.9484 12.1502L80.7805 12.054Z" fill="#686868"/>
</g>
</svg>
