<?xml version="1.0" encoding="UTF-8"?>
<svg id="Layer_1" data-name="Layer 1" xmlns="http://www.w3.org/2000/svg" viewBox="0 0 554.69 98.64">
  <defs>
    <style>
      .cls-1 {
        fill: #000;
        stroke-width: 0px;
      }

      .cls-2 {
        isolation: isolate;
      }
    </style>
  </defs>
  <g class="cls-2">
    <g class="cls-2">
      <g class="cls-2">
        <path class="cls-1" d="M13.31,3.83v75.68h25.93v12.51H0V3.83h13.31Z"/>
      </g>
    </g>
    <g class="cls-2">
      <g class="cls-2">
        <path class="cls-1" d="M55.41,0l11.42,4.46-16.28,32.67-8.68-3.6L55.41,0Z"/>
        <path class="cls-1" d="M79.62,47.52c0-12.41,4.55-23.08,13.65-31.99,9.06-8.91,19.95-13.37,32.67-13.37s23.34,4.49,32.33,13.48c9.02,8.99,13.54,19.78,13.54,32.39s-4.53,23.44-13.59,32.27c-9.1,8.87-20.09,13.31-32.96,13.31-11.39,0-21.61-3.94-30.67-11.82-9.98-8.72-14.97-20.14-14.97-34.27ZM93.05,47.69c0,9.75,3.27,17.76,9.82,24.05,6.51,6.28,14.03,9.42,22.56,9.42,9.25,0,17.06-3.2,23.42-9.6,6.36-6.47,9.54-14.36,9.54-23.65s-3.14-17.29-9.42-23.65c-6.25-6.4-13.98-9.6-23.19-9.6s-16.93,3.2-23.25,9.6c-6.32,6.32-9.48,14.13-9.48,23.42Z"/>
      </g>
    </g>
    <g class="cls-2">
      <g class="cls-2">
        <path class="cls-1" d="M218.42,54.43l27.3,37.58h-16.28l-25.19-36.1h-2.4v36.1h-13.31V3.83h15.59c11.65,0,20.07,2.19,25.25,6.57,5.71,4.88,8.57,11.31,8.57,19.31,0,6.25-1.79,11.62-5.37,16.11-3.58,4.49-8.3,7.37-14.17,8.62ZM201.86,44.32h4.23c12.6,0,18.91-4.82,18.91-14.45,0-9.03-6.13-13.54-18.39-13.54h-4.74v27.99Z"/>
      </g>
    </g>
    <g class="cls-2">
      <g class="cls-2">
        <path class="cls-1" d="M260.3,3.83l24.39,61.12,24.73-61.12h14.56l-39.58,94.82L245.73,3.83h14.57Z"/>
        <path class="cls-1" d="M348.26,3.83v88.19h-13.31V3.83h13.31Z"/>
        <path class="cls-1" d="M418.12,16.34h-35.36v21.19h34.33v12.51h-34.33v29.47h35.36v12.51h-48.67V3.83h48.67v12.51Z"/>
        <path class="cls-1" d="M465.47,54.43l27.3,37.58h-16.28l-25.19-36.1h-2.4v36.1h-13.31V3.83h15.59c11.65,0,20.07,2.19,25.25,6.57,5.71,4.88,8.57,11.31,8.57,19.31,0,6.25-1.79,11.62-5.37,16.11-3.58,4.49-8.3,7.37-14.17,8.62ZM448.9,44.32h4.23c12.6,0,18.91-4.82,18.91-14.45,0-9.03-6.13-13.54-18.39-13.54h-4.74v27.99Z"/>
        <path class="cls-1" d="M554.69,16.34h-35.36v21.19h34.33v12.51h-34.33v29.47h35.36v12.51h-48.67V3.83h48.67v12.51Z"/>
      </g>
    </g>
  </g>
</svg>